<svg id="svg" version="1.1" width="400" height="219.6969696969697" xmlns="http://www.w3.org/2000/svg" xmlns:xlink="http://www.w3.org/1999/xlink" style="display: block;"><g id="svgg"><path id="path0" d="" stroke="none" fill="#aaaaaa" fill-rule="evenodd"></path><path id="path1" d="" stroke="none" fill="#cccccc" fill-rule="evenodd"></path><path id="path2" d="M340.925 139.239 C 340.628 139.576,340.824 139.652,341.409 139.428 C 341.600 139.354,341.701 139.206,341.634 139.098 C 341.464 138.823,341.256 138.865,340.925 139.239 M200.387 160.155 C 200.661 160.208,201.056 160.206,201.266 160.151 C 201.476 160.096,201.253 160.053,200.769 160.055 C 200.286 160.058,200.114 160.103,200.387 160.155 " stroke="none" fill="#efefef" fill-rule="evenodd"></path><path id="path3" d="M62.857 15.160 L 62.857 15.814 59.176 15.874 L 55.495 15.934 55.426 16.648 L 55.357 17.363 53.063 17.363 L 50.769 17.363 50.769 18.132 L 50.769 18.901 49.231 18.901 L 47.692 18.901 47.692 19.670 L 47.692 20.440 45.495 20.440 L 43.297 20.440 43.297 21.209 L 43.297 21.978 41.758 21.978 L 40.220 21.978 40.220 22.747 L 40.220 23.516 38.681 23.516 L 37.143 23.516 37.143 24.286 L 37.143 25.055 35.604 25.055 L 34.066 25.055 34.066 25.824 L 34.066 26.593 32.527 26.593 L 30.989 26.593 30.989 44.725 L 30.989 62.857 33.297 62.857 L 35.604 62.857 35.604 62.088 C 35.604 61.355,35.641 61.319,36.374 61.319 C 37.106 61.319,37.143 61.282,37.143 60.549 C 37.143 59.817,37.179 59.780,37.912 59.780 C 38.645 59.780,38.681 59.744,38.681 59.011 L 38.681 58.242 40.220 58.242 L 41.758 58.242 41.758 57.582 C 41.758 56.996,41.832 56.923,42.418 56.923 C 43.025 56.923,43.077 56.862,43.077 56.154 L 43.077 55.385 44.615 55.385 L 46.154 55.385 46.154 54.615 L 46.154 53.846 47.692 53.846 L 49.231 53.846 49.231 53.077 L 49.231 52.308 50.769 52.308 L 52.308 52.308 52.308 51.538 C 52.308 50.800,52.340 50.768,53.132 50.749 C 55.315 50.696,55.270 50.712,55.344 49.945 L 55.412 49.231 56.827 49.231 L 58.242 49.231 58.242 48.462 L 58.242 47.692 62.088 47.692 L 65.934 47.692 65.934 46.923 L 65.934 46.154 73.516 46.154 L 81.099 46.154 81.099 46.923 L 81.099 47.692 83.407 47.692 L 85.714 47.692 85.714 48.462 L 85.714 49.231 87.143 49.231 L 88.571 49.231 88.571 50.000 C 88.571 50.733,88.608 50.769,89.341 50.769 C 90.073 50.769,90.110 50.806,90.110 51.538 C 90.110 52.271,90.147 52.308,90.879 52.308 C 91.612 52.308,91.648 52.344,91.648 53.077 C 91.648 53.810,91.685 53.846,92.418 53.846 C 93.150 53.846,93.187 53.883,93.187 54.615 C 93.187 55.348,93.223 55.385,93.956 55.385 L 94.725 55.385 94.748 56.868 C 94.760 57.684,94.752 58.673,94.731 59.066 C 94.693 59.746,94.729 59.780,95.478 59.780 L 96.264 59.780 96.264 61.319 L 96.264 62.857 97.033 62.857 L 97.802 62.857 97.802 67.473 L 97.802 72.088 97.033 72.088 L 96.264 72.088 96.264 74.286 L 96.264 76.484 95.495 76.484 L 94.725 76.484 94.725 78.791 L 94.725 81.099 93.956 81.099 L 93.187 81.099 93.187 82.637 L 93.187 84.176 92.418 84.176 L 91.648 84.176 91.648 85.714 L 91.648 87.253 90.879 87.253 L 90.110 87.253 90.110 88.667 L 90.110 90.082 89.396 90.151 C 88.771 90.211,88.673 90.307,88.613 90.921 C 88.554 91.532,88.455 91.631,87.844 91.690 C 87.231 91.750,87.134 91.848,87.074 92.473 C 87.013 93.101,86.927 93.187,86.360 93.187 C 85.769 93.187,85.714 93.252,85.714 93.956 C 85.714 94.689,85.678 94.725,84.945 94.725 C 84.212 94.725,84.176 94.762,84.176 95.495 C 84.176 96.227,84.139 96.264,83.407 96.264 L 82.637 96.264 82.637 97.802 L 82.637 99.341 81.868 99.341 C 81.136 99.341,81.099 99.377,81.099 100.110 C 81.099 100.842,81.062 100.879,80.330 100.879 C 79.597 100.879,79.560 100.916,79.560 101.648 C 79.560 102.381,79.524 102.418,78.791 102.418 C 78.087 102.418,78.022 102.472,78.022 103.063 C 78.022 103.631,77.936 103.717,77.308 103.777 C 76.683 103.838,76.585 103.934,76.526 104.547 C 76.466 105.158,76.367 105.258,75.756 105.317 C 75.146 105.376,75.046 105.475,74.987 106.086 C 74.928 106.697,74.828 106.796,74.218 106.855 C 73.604 106.915,73.508 107.012,73.448 107.637 C 73.387 108.265,73.301 108.352,72.733 108.352 C 72.142 108.352,72.088 108.416,72.088 109.121 C 72.088 109.853,72.051 109.890,71.319 109.890 C 70.586 109.890,70.549 109.927,70.549 110.659 C 70.549 111.392,70.513 111.429,69.780 111.429 C 69.048 111.429,69.011 111.465,69.011 112.198 L 69.011 112.967 67.473 112.967 L 65.934 112.967 65.934 113.736 C 65.934 114.469,65.897 114.505,65.165 114.505 C 64.432 114.505,64.396 114.542,64.396 115.275 C 64.396 116.007,64.359 116.044,63.626 116.044 L 62.857 116.044 62.857 117.459 L 62.857 118.873 62.143 118.942 C 61.515 119.003,61.420 119.097,61.360 119.725 L 61.291 120.440 59.900 120.440 C 58.451 120.440,58.242 120.580,58.242 121.556 C 58.242 121.878,58.086 121.978,57.582 121.978 C 56.975 121.978,56.923 122.039,56.923 122.747 C 56.923 123.480,56.886 123.516,56.154 123.516 C 55.421 123.516,55.385 123.553,55.385 124.286 C 55.385 125.018,55.348 125.055,54.615 125.055 C 53.883 125.055,53.846 125.092,53.846 125.824 C 53.846 126.557,53.810 126.593,53.077 126.593 C 52.344 126.593,52.308 126.630,52.308 127.363 C 52.308 128.095,52.271 128.132,51.538 128.132 C 50.806 128.132,50.769 128.168,50.769 128.901 C 50.769 129.634,50.733 129.670,50.000 129.670 C 49.267 129.670,49.231 129.707,49.231 130.440 C 49.231 131.172,49.194 131.209,48.462 131.209 C 47.729 131.209,47.692 131.245,47.692 131.978 C 47.692 132.711,47.656 132.747,46.923 132.747 C 46.219 132.747,46.154 132.802,46.154 133.393 C 46.154 133.960,46.068 134.046,45.440 134.107 C 44.811 134.168,44.717 134.262,44.656 134.890 C 44.596 135.518,44.510 135.604,43.942 135.604 C 43.351 135.604,43.297 135.669,43.297 136.374 C 43.297 137.106,43.260 137.143,42.527 137.143 C 41.795 137.143,41.758 137.179,41.758 137.912 C 41.758 138.645,41.722 138.681,40.989 138.681 C 40.256 138.681,40.220 138.718,40.220 139.451 C 40.220 140.183,40.183 140.220,39.451 140.220 C 38.718 140.220,38.681 140.256,38.681 140.989 C 38.681 141.722,38.645 141.758,37.912 141.758 C 37.179 141.758,37.143 141.795,37.143 142.527 L 37.143 143.297 35.604 143.297 L 34.066 143.297 34.066 144.066 C 34.066 144.803,34.033 144.835,33.274 144.835 C 32.490 144.835,32.482 144.845,32.560 145.660 L 32.639 146.485 31.814 146.406 L 30.989 146.327 30.989 147.765 L 30.989 149.203 30.275 149.272 C 29.647 149.332,29.552 149.427,29.492 150.055 L 29.423 150.769 28.008 150.769 L 26.593 150.769 26.593 151.538 C 26.593 152.271,26.557 152.308,25.824 152.308 C 25.092 152.308,25.055 152.344,25.055 153.077 C 25.055 153.810,25.018 153.846,24.286 153.846 L 23.516 153.846 23.516 170.550 L 23.516 187.254 80.275 187.198 L 137.033 187.143 137.089 170.495 L 137.146 153.846 104.507 153.846 L 71.868 153.846 71.868 153.077 C 71.868 152.344,71.905 152.308,72.637 152.308 C 73.370 152.308,73.407 152.271,73.407 151.538 C 73.407 150.806,73.443 150.769,74.176 150.769 C 74.908 150.769,74.945 150.733,74.945 150.000 C 74.945 149.267,74.982 149.231,75.714 149.231 C 76.447 149.231,76.484 149.194,76.484 148.462 C 76.484 147.729,76.520 147.692,77.253 147.692 C 77.985 147.692,78.022 147.656,78.022 146.923 L 78.022 146.154 79.560 146.154 L 81.099 146.154 81.099 145.508 C 81.099 144.941,81.185 144.855,81.813 144.794 C 82.438 144.734,82.536 144.638,82.595 144.024 C 82.654 143.413,82.754 143.314,83.365 143.255 C 83.978 143.195,84.075 143.098,84.135 142.473 C 84.195 141.844,84.282 141.758,84.849 141.758 C 85.440 141.758,85.495 141.694,85.495 140.989 C 85.495 140.256,85.531 140.220,86.264 140.220 C 86.996 140.220,87.033 140.183,87.033 139.451 C 87.033 138.718,87.070 138.681,87.802 138.681 C 88.535 138.681,88.571 138.645,88.571 137.912 C 88.571 137.179,88.608 137.143,89.341 137.143 C 90.073 137.143,90.110 137.106,90.110 136.374 L 90.110 135.604 91.648 135.604 L 93.187 135.604 93.187 134.835 C 93.187 134.103,93.223 134.066,93.956 134.066 C 94.689 134.066,94.725 134.029,94.725 133.297 C 94.725 132.564,94.762 132.527,95.495 132.527 C 96.227 132.527,96.264 132.491,96.264 131.758 C 96.264 131.026,96.300 130.989,97.033 130.989 C 97.741 130.989,97.802 130.937,97.802 130.330 C 97.802 129.744,97.875 129.670,98.462 129.670 C 99.069 129.670,99.121 129.609,99.121 128.901 C 99.121 128.168,99.158 128.132,99.890 128.132 C 100.623 128.132,100.659 128.095,100.659 127.363 C 100.659 126.630,100.696 126.593,101.429 126.593 C 102.161 126.593,102.198 126.557,102.198 125.824 C 102.198 125.092,102.234 125.055,102.967 125.055 C 103.700 125.055,103.736 125.018,103.736 124.286 C 103.736 123.553,103.773 123.516,104.505 123.516 C 105.253 123.516,105.275 123.492,105.275 122.662 C 105.275 121.811,105.279 121.807,106.044 121.910 C 106.799 122.012,106.813 122.000,106.813 121.227 C 106.813 120.474,106.846 120.440,107.582 120.440 C 108.315 120.440,108.352 120.403,108.352 119.670 L 108.352 118.901 109.890 118.901 L 111.429 118.901 111.429 118.146 C 111.429 117.454,111.489 117.385,112.143 117.322 C 112.857 117.253,112.857 117.253,112.923 115.879 C 112.987 114.519,112.994 114.505,113.637 114.505 C 114.232 114.505,114.286 114.442,114.286 113.736 C 114.286 113.004,114.322 112.967,115.055 112.967 C 115.788 112.967,115.824 112.930,115.824 112.198 C 115.824 111.465,115.861 111.429,116.593 111.429 C 117.326 111.429,117.363 111.392,117.363 110.659 C 117.363 109.927,117.399 109.890,118.132 109.890 C 118.864 109.890,118.901 109.853,118.901 109.121 C 118.901 108.388,118.938 108.352,119.670 108.352 C 120.403 108.352,120.440 108.315,120.440 107.582 C 120.440 106.850,120.476 106.813,121.209 106.813 C 121.941 106.813,121.978 106.777,121.978 106.044 C 121.978 105.311,122.015 105.275,122.747 105.275 L 123.516 105.275 123.516 103.736 L 123.516 102.198 124.286 102.198 L 125.055 102.198 125.055 100.783 L 125.055 99.369 125.769 99.300 C 126.397 99.239,126.492 99.145,126.552 98.516 C 126.613 97.888,126.699 97.802,127.267 97.802 C 127.858 97.802,127.912 97.737,127.912 97.033 C 127.912 96.300,127.949 96.264,128.681 96.264 L 129.451 96.264 129.451 94.725 L 129.451 93.187 130.220 93.187 L 130.989 93.187 130.989 91.648 L 130.989 90.110 131.758 90.110 L 132.527 90.110 132.527 88.571 L 132.527 87.033 133.297 87.033 L 134.066 87.033 134.066 84.835 L 134.066 82.637 134.835 82.637 L 135.604 82.637 135.604 80.330 L 135.604 78.022 136.374 78.022 L 137.143 78.022 137.143 75.714 L 137.143 73.407 137.912 73.407 L 138.681 73.407 138.681 62.857 L 138.681 52.308 137.920 52.308 L 137.158 52.308 137.096 50.055 L 137.033 47.802 136.319 47.733 L 135.604 47.664 135.604 45.481 L 135.604 43.297 134.835 43.297 L 134.066 43.297 134.066 40.989 L 134.066 38.681 133.297 38.681 L 132.527 38.681 132.527 37.143 L 132.527 35.604 131.758 35.604 C 131.026 35.604,130.989 35.568,130.989 34.835 C 130.989 34.105,130.951 34.066,130.230 34.066 L 129.471 34.066 129.406 32.582 L 129.341 31.099 127.967 31.033 C 126.607 30.969,126.593 30.962,126.593 30.319 C 126.593 29.724,126.530 29.670,125.824 29.670 L 125.055 29.670 125.055 28.132 L 125.055 26.593 124.286 26.593 C 123.553 26.593,123.516 26.557,123.516 25.824 L 123.516 25.055 121.978 25.055 L 120.440 25.055 120.440 24.286 C 120.440 23.553,120.403 23.516,119.670 23.516 C 118.899 23.516,118.852 23.456,118.844 22.473 C 118.842 22.132,118.709 21.978,118.418 21.978 C 118.144 21.978,118.050 22.074,118.151 22.253 C 118.275 22.473,118.247 22.473,118.010 22.253 C 117.847 22.102,117.289 21.978,116.769 21.978 C 115.836 21.978,115.824 21.969,115.824 21.209 L 115.824 20.440 114.410 20.440 L 112.995 20.440 112.926 19.725 L 112.857 19.011 111.387 18.946 L 109.917 18.882 109.848 18.177 L 109.780 17.473 108.310 17.408 L 106.840 17.343 106.771 16.639 L 106.703 15.934 103.681 15.873 L 100.659 15.812 100.659 15.159 L 100.659 14.505 81.758 14.505 L 62.857 14.505 62.857 15.160 M185.714 15.161 L 185.714 15.812 182.692 15.873 L 179.670 15.934 179.602 16.639 L 179.534 17.343 178.064 17.408 L 176.593 17.473 176.525 18.177 L 176.457 18.882 174.987 18.946 L 173.516 19.011 173.448 19.725 L 173.379 20.440 171.964 20.440 L 170.549 20.440 170.549 21.209 L 170.549 21.978 169.011 21.978 L 167.473 21.978 167.473 22.747 C 167.473 23.480,167.436 23.516,166.703 23.516 C 165.971 23.516,165.934 23.553,165.934 24.286 L 165.934 25.055 164.396 25.055 L 162.857 25.055 162.857 25.824 C 162.857 26.557,162.821 26.593,162.088 26.593 L 161.319 26.593 161.319 28.122 L 161.319 29.650 159.835 29.715 L 158.352 29.780 158.286 31.154 C 158.221 32.514,158.214 32.527,157.572 32.527 C 156.977 32.527,156.923 32.591,156.923 33.297 C 156.923 34.029,156.886 34.066,156.154 34.066 C 155.421 34.066,155.385 34.103,155.385 34.835 C 155.385 35.568,155.348 35.604,154.615 35.604 C 153.883 35.604,153.846 35.641,153.846 36.374 C 153.846 37.106,153.810 37.143,153.077 37.143 L 152.308 37.143 152.308 38.681 L 152.308 40.220 151.538 40.220 L 150.769 40.220 150.769 41.758 L 150.769 43.297 150.000 43.297 C 149.267 43.297,149.231 43.333,149.231 44.066 C 149.231 44.799,149.194 44.835,148.462 44.835 L 147.692 44.835 147.692 47.019 L 147.692 49.203 146.978 49.272 L 146.264 49.341 146.199 50.811 L 146.134 52.281 145.430 52.349 L 144.725 52.418 144.660 53.901 C 144.595 55.383,144.595 55.385,143.946 55.385 L 143.297 55.385 143.297 57.568 L 143.297 59.752 142.582 59.821 L 141.868 59.890 141.808 63.681 L 141.748 67.473 140.984 67.473 L 140.220 67.473 140.220 71.195 L 140.220 74.917 139.505 74.986 L 138.791 75.055 138.733 82.569 L 138.676 90.082 137.964 90.151 L 137.253 90.220 137.196 104.560 L 137.140 118.901 137.910 118.901 L 138.681 118.901 138.681 126.484 L 138.681 134.066 139.451 134.066 L 140.220 134.066 140.220 138.681 L 140.220 143.297 140.989 143.297 L 141.758 143.297 141.758 145.495 L 141.758 147.692 142.527 147.692 L 143.297 147.692 143.297 150.769 L 143.297 153.846 143.942 153.846 C 144.510 153.846,144.596 153.932,144.656 154.560 C 144.717 155.187,144.812 155.283,145.432 155.343 L 146.139 155.411 146.201 157.651 L 146.264 159.890 146.978 159.959 L 147.692 160.028 147.692 161.442 L 147.692 162.857 148.462 162.857 L 149.231 162.857 149.231 164.396 L 149.231 165.934 150.000 165.934 C 150.733 165.934,150.769 165.971,150.769 166.703 C 150.769 167.436,150.806 167.473,151.538 167.473 L 152.308 167.473 152.308 169.011 L 152.308 170.549 153.077 170.549 C 153.810 170.549,153.846 170.586,153.846 171.319 C 153.846 172.049,153.885 172.088,154.601 172.088 C 155.293 172.088,155.363 172.148,155.426 172.802 C 155.486 173.430,155.581 173.525,156.209 173.585 C 156.837 173.646,156.923 173.732,156.923 174.300 C 156.923 174.870,156.999 174.945,157.582 174.945 C 158.189 174.945,158.242 175.006,158.242 175.714 C 158.242 176.447,158.278 176.484,159.011 176.484 C 159.744 176.484,159.780 176.520,159.780 177.253 C 159.780 177.985,159.817 178.022,160.549 178.022 C 161.282 178.022,161.319 178.059,161.319 178.791 C 161.319 179.524,161.355 179.560,162.088 179.560 C 162.821 179.560,162.857 179.597,162.857 180.330 C 162.857 181.062,162.894 181.099,163.626 181.099 C 164.359 181.099,164.396 181.136,164.396 181.868 L 164.396 182.637 165.934 182.637 L 167.473 182.637 167.473 183.407 L 167.473 184.176 169.011 184.176 L 170.549 184.176 170.549 184.945 L 170.549 185.714 171.978 185.714 C 173.240 185.714,173.407 185.764,173.407 186.136 C 173.407 187.223,173.492 187.253,176.603 187.253 L 179.533 187.253 179.601 187.967 L 179.670 188.681 183.352 188.742 L 187.033 188.802 187.033 189.456 L 187.033 190.110 199.231 190.110 L 211.429 190.110 211.429 189.456 L 211.429 188.802 215.110 188.742 L 218.791 188.681 218.860 187.975 L 218.928 187.268 221.167 187.205 L 223.407 187.143 223.475 186.436 L 223.543 185.730 225.673 185.667 L 227.802 185.604 227.871 184.890 C 227.934 184.236,228.004 184.176,228.695 184.176 C 229.412 184.176,229.451 184.136,229.451 183.407 L 229.451 182.637 230.989 182.637 L 232.527 182.637 232.527 181.868 C 232.527 181.136,232.564 181.099,233.297 181.099 C 234.029 181.099,234.066 181.062,234.066 180.330 L 234.066 179.560 235.604 179.560 L 237.143 179.560 237.143 178.791 C 237.143 178.059,237.179 178.022,237.912 178.022 C 238.645 178.022,238.681 177.985,238.681 177.253 C 238.681 176.520,238.718 176.484,239.451 176.484 C 240.183 176.484,240.220 176.447,240.220 175.714 C 240.220 174.982,240.256 174.945,240.989 174.945 C 241.697 174.945,241.758 174.893,241.758 174.286 C 241.758 173.700,241.832 173.626,242.418 173.626 C 243.025 173.626,243.077 173.565,243.077 172.857 C 243.077 172.125,243.114 172.088,243.846 172.088 L 244.615 172.088 244.615 170.549 L 244.615 169.011 245.385 169.011 C 246.117 169.011,246.154 168.974,246.154 168.242 C 246.154 167.509,246.190 167.473,246.923 167.473 C 247.656 167.473,247.692 167.436,247.692 166.703 C 247.692 165.971,247.729 165.934,248.462 165.934 L 249.231 165.934 249.231 164.396 L 249.231 162.857 250.000 162.857 L 250.769 162.857 250.769 161.442 L 250.769 160.028 251.484 159.959 L 252.198 159.890 252.262 158.420 L 252.327 156.949 253.032 156.881 L 253.736 156.813 253.799 154.574 L 253.861 152.334 254.568 152.266 L 255.275 152.198 255.340 150.714 C 255.405 149.232,255.405 149.231,256.054 149.231 L 256.703 149.231 256.703 147.033 L 256.703 144.835 257.473 144.835 L 258.242 144.835 258.242 141.758 L 258.242 138.681 259.026 138.681 L 259.811 138.681 259.778 135.549 C 259.726 130.583,259.657 130.989,260.549 130.989 L 261.319 130.989 261.319 124.176 L 261.319 117.363 262.088 117.363 L 262.857 117.363 262.857 100.000 L 262.857 82.637 262.088 82.637 L 261.319 82.637 261.319 75.824 L 261.319 69.011 260.549 69.011 L 259.780 69.011 259.780 65.165 L 259.780 61.319 259.011 61.319 L 258.242 61.319 258.242 58.352 L 258.242 55.385 257.473 55.385 L 256.703 55.385 256.703 53.077 L 256.703 50.769 256.054 50.769 C 255.405 50.769,255.405 50.768,255.340 49.286 L 255.275 47.802 254.560 47.733 L 253.846 47.664 253.846 46.250 L 253.846 44.835 253.077 44.835 L 252.308 44.835 252.308 43.297 L 252.308 41.758 251.538 41.758 L 250.769 41.758 250.746 40.055 C 250.733 39.118,250.741 38.080,250.763 37.747 C 250.799 37.193,250.737 37.143,250.017 37.143 C 249.265 37.143,249.231 37.109,249.231 36.374 C 249.231 35.641,249.194 35.604,248.462 35.604 L 247.692 35.604 247.692 34.199 C 247.692 32.740,247.552 32.527,246.589 32.527 C 246.290 32.527,246.163 32.338,246.113 31.813 C 246.052 31.185,245.958 31.091,245.330 31.030 C 244.695 30.969,244.615 30.886,244.615 30.292 C 244.615 29.656,244.577 29.627,243.846 29.712 C 243.086 29.801,243.077 29.792,243.077 28.967 C 243.077 28.190,243.032 28.132,242.432 28.132 C 241.864 28.132,241.778 28.046,241.717 27.418 C 241.657 26.790,241.562 26.695,240.934 26.634 C 240.280 26.571,240.220 26.502,240.220 25.810 C 240.220 25.094,240.180 25.055,239.451 25.055 C 238.718 25.055,238.681 25.018,238.681 24.286 L 238.681 23.516 237.143 23.516 L 235.604 23.516 235.604 22.747 L 235.604 21.978 234.066 21.978 L 232.527 21.978 232.527 21.209 C 232.527 20.476,232.491 20.440,231.758 20.440 C 231.026 20.440,230.989 20.403,230.989 19.670 L 230.989 18.901 229.451 18.901 L 227.912 18.901 227.912 18.132 L 227.912 17.363 226.484 17.363 L 225.055 17.363 225.055 16.718 C 225.055 16.014,224.631 15.761,223.567 15.831 C 223.237 15.853,222.052 15.860,220.934 15.847 L 218.901 15.824 218.901 15.166 L 218.901 14.509 202.308 14.510 L 185.714 14.511 185.714 15.161 M201.923 44.585 C 202.074 44.602,202.198 44.805,202.198 45.037 C 202.198 46.086,202.346 46.154,204.639 46.154 L 206.813 46.154 206.813 46.923 L 206.813 47.692 208.352 47.692 L 209.890 47.692 209.890 48.462 C 209.890 49.194,209.927 49.231,210.659 49.231 L 211.429 49.231 211.429 50.769 L 211.429 52.308 212.198 52.308 C 212.930 52.308,212.967 52.344,212.967 53.077 C 212.967 53.810,213.004 53.846,213.736 53.846 L 214.505 53.846 214.505 55.385 L 214.505 56.923 215.165 56.923 L 215.824 56.923 215.824 58.773 C 215.824 59.791,215.884 60.780,215.958 60.971 C 216.116 61.383,217.058 61.438,217.217 61.044 C 217.278 60.893,217.336 61.931,217.345 63.352 L 217.363 65.934 218.132 65.934 L 218.901 65.934 218.901 70.440 L 218.901 74.945 219.670 74.945 L 220.440 74.945 220.440 83.297 L 220.440 91.648 221.209 91.648 L 221.978 91.648 221.978 101.538 L 221.978 111.429 221.209 111.429 L 220.440 111.429 220.440 120.549 L 220.440 129.670 219.670 129.670 L 218.901 129.670 218.901 134.162 L 218.901 138.653 218.187 138.722 L 217.473 138.791 217.410 141.031 L 217.348 143.270 216.641 143.338 L 215.934 143.407 215.871 145.549 L 215.808 147.692 215.157 147.692 L 214.505 147.692 214.505 149.231 L 214.505 150.769 213.736 150.769 C 213.004 150.769,212.967 150.806,212.967 151.538 C 212.967 152.271,212.930 152.308,212.198 152.308 C 211.465 152.308,211.429 152.344,211.429 153.077 C 211.429 153.810,211.392 153.846,210.659 153.846 C 209.927 153.846,209.890 153.883,209.890 154.615 C 209.890 155.348,209.853 155.385,209.121 155.385 C 208.388 155.385,208.352 155.421,208.352 156.154 L 208.352 156.923 206.813 156.923 L 205.275 156.923 205.275 157.682 L 205.275 158.441 203.791 158.506 L 202.308 158.571 202.240 159.263 C 202.156 160.136,201.748 160.258,199.517 160.077 L 197.825 159.939 197.759 159.255 C 197.692 158.572,197.692 158.571,196.209 158.506 L 194.725 158.441 194.725 157.682 L 194.725 156.923 193.187 156.923 L 191.648 156.923 191.648 156.154 C 191.648 155.421,191.612 155.385,190.879 155.385 C 190.147 155.385,190.110 155.348,190.110 154.615 C 190.110 153.883,190.073 153.846,189.341 153.846 L 188.571 153.846 188.571 152.308 L 188.571 150.769 187.033 150.769 L 185.495 150.769 185.495 148.571 L 185.495 146.374 184.845 146.374 C 184.197 146.374,184.196 146.372,184.131 144.890 L 184.066 143.407 183.358 143.338 L 182.650 143.270 182.589 140.261 L 182.527 137.253 181.813 137.184 L 181.099 137.115 181.099 133.393 L 181.099 129.670 180.330 129.670 L 179.560 129.670 179.560 119.011 L 179.560 108.352 178.791 108.352 L 178.022 108.352 178.022 103.860 L 178.022 99.369 178.736 99.300 L 179.451 99.231 179.507 87.857 L 179.564 76.484 180.332 76.484 L 181.099 76.484 181.099 72.761 L 181.099 69.039 181.813 68.970 L 182.527 68.901 182.589 65.893 L 182.650 62.884 183.358 62.816 L 184.066 62.747 184.129 60.495 L 184.191 58.242 184.843 58.242 L 185.495 58.242 185.495 56.813 L 185.495 55.385 186.264 55.385 C 186.996 55.385,187.033 55.348,187.033 54.615 C 187.033 53.883,187.070 53.846,187.802 53.846 C 188.535 53.846,188.571 53.810,188.571 53.077 C 188.571 52.344,188.608 52.308,189.341 52.308 L 190.110 52.308 190.110 50.769 L 190.110 49.231 190.879 49.231 C 191.612 49.231,191.648 49.194,191.648 48.462 L 191.648 47.692 193.187 47.692 L 194.725 47.692 194.725 46.923 L 194.725 46.154 196.923 46.154 L 199.121 46.154 199.121 45.400 C 199.121 44.511,199.717 44.338,201.923 44.585 M290.110 86.484 L 290.110 87.253 287.912 87.253 L 285.714 87.253 285.714 88.022 C 285.714 88.755,285.678 88.791,284.945 88.791 C 284.237 88.791,284.176 88.844,284.176 89.451 C 284.176 90.102,284.162 90.110,282.985 90.110 C 281.392 90.110,281.099 90.250,281.099 91.013 C 281.099 91.593,281.032 91.648,280.330 91.648 C 279.597 91.648,279.560 91.685,279.560 92.418 C 279.560 93.150,279.524 93.187,278.791 93.187 L 278.022 93.187 278.022 94.725 L 278.022 96.264 277.253 96.264 L 276.484 96.264 276.484 97.802 L 276.484 99.341 275.714 99.341 L 274.945 99.341 274.945 100.879 L 274.945 102.418 274.290 102.418 C 273.371 102.418,273.387 102.228,273.455 112.637 L 273.516 121.868 274.223 121.936 L 274.930 122.005 274.992 124.244 L 275.055 126.484 275.759 126.552 L 276.464 126.620 276.529 128.090 L 276.593 129.560 277.308 129.629 C 277.936 129.690,278.022 129.776,278.022 130.344 C 278.022 130.935,278.087 130.989,278.791 130.989 C 279.524 130.989,279.560 131.026,279.560 131.758 C 279.560 132.491,279.597 132.527,280.330 132.527 C 281.062 132.527,281.099 132.564,281.099 133.297 L 281.099 134.066 282.637 134.066 L 284.176 134.066 284.176 134.835 L 284.176 135.604 285.590 135.604 L 287.005 135.604 287.074 136.319 L 287.143 137.033 297.747 137.090 L 308.352 137.147 308.352 136.376 L 308.352 135.604 309.890 135.604 L 311.429 135.604 311.429 134.835 L 311.429 134.066 312.857 134.066 L 314.286 134.066 314.286 133.297 C 314.286 132.567,314.324 132.527,315.042 132.527 C 315.757 132.527,315.801 132.483,315.866 131.703 C 315.931 130.916,315.967 130.882,316.665 130.937 C 317.339 130.989,317.393 130.946,317.356 130.387 C 317.224 128.383,317.310 128.132,318.132 128.132 C 318.864 128.132,318.901 128.095,318.901 127.363 C 318.901 126.630,318.938 126.593,319.670 126.593 L 320.440 126.593 320.440 124.286 L 320.440 121.978 321.209 121.978 L 321.978 121.978 321.978 111.429 L 321.978 100.879 321.209 100.879 L 320.440 100.879 320.440 98.571 L 320.440 96.264 319.680 96.264 L 318.921 96.264 318.856 94.780 L 318.791 93.297 318.132 93.290 C 317.531 93.284,317.466 93.210,317.404 92.466 C 317.340 91.697,317.292 91.648,316.594 91.648 C 315.918 91.648,315.846 91.585,315.783 90.934 C 315.714 90.220,315.714 90.220,314.341 90.154 C 312.981 90.090,312.967 90.082,312.967 89.440 C 312.967 88.845,312.903 88.791,312.198 88.791 C 311.465 88.791,311.429 88.755,311.429 88.022 L 311.429 87.253 309.121 87.253 L 306.813 87.253 306.813 86.484 L 306.813 85.714 298.462 85.714 L 290.110 85.714 290.110 86.484 M347.692 88.022 C 347.692 88.755,347.656 88.791,346.923 88.791 L 346.154 88.791 346.154 90.206 L 346.154 91.621 345.440 91.689 L 344.725 91.758 344.660 93.242 C 344.595 94.724,344.595 94.725,343.946 94.725 C 343.350 94.725,343.297 94.789,343.297 95.495 C 343.297 96.227,343.260 96.264,342.527 96.264 L 341.758 96.264 341.758 97.802 L 341.758 99.341 340.989 99.341 C 340.256 99.341,340.220 99.377,340.220 100.110 C 340.220 100.842,340.183 100.879,339.451 100.879 C 338.718 100.879,338.681 100.916,338.681 101.648 C 338.681 102.381,338.645 102.418,337.912 102.418 C 337.177 102.418,337.143 102.452,337.143 103.200 C 337.143 103.735,337.223 103.932,337.397 103.825 C 337.571 103.717,337.589 103.765,337.455 103.977 C 337.248 104.304,337.214 104.419,337.170 104.945 C 337.152 105.170,336.899 105.275,336.374 105.275 L 335.604 105.275 335.604 106.813 L 335.604 108.352 334.835 108.352 L 334.066 108.352 334.066 109.890 L 334.066 111.429 333.297 111.429 C 332.564 111.429,332.527 111.465,332.527 112.198 C 332.527 112.930,332.491 112.967,331.758 112.967 C 331.028 112.967,330.989 113.006,330.989 113.722 C 330.989 114.414,330.929 114.483,330.275 114.547 L 329.560 114.615 329.495 116.099 C 329.431 117.581,329.430 117.582,328.781 117.582 C 328.209 117.582,328.132 117.659,328.132 118.228 C 328.132 118.795,328.046 118.882,327.418 118.942 L 326.703 119.011 326.638 120.495 L 326.573 121.978 325.814 121.978 L 325.055 121.978 325.055 123.516 L 325.055 125.055 324.286 125.055 C 323.553 125.055,323.516 125.092,323.516 125.824 C 323.516 126.557,323.480 126.593,322.747 126.593 L 321.978 126.593 321.978 128.132 L 321.978 129.670 321.209 129.670 C 320.476 129.670,320.440 129.707,320.440 130.440 C 320.440 131.172,320.403 131.209,319.670 131.209 C 318.938 131.209,318.901 131.245,318.901 131.978 C 318.901 132.401,318.796 132.747,318.668 132.747 C 318.540 132.747,318.505 132.871,318.591 133.022 C 318.715 133.242,318.687 133.242,318.450 133.022 C 317.758 132.380,317.328 132.685,317.366 133.791 C 317.426 135.554,317.420 135.571,316.648 135.645 L 315.934 135.714 315.869 137.198 C 315.804 138.680,315.803 138.681,315.155 138.681 L 314.505 138.681 314.505 140.220 L 314.505 141.758 313.736 141.758 C 313.004 141.758,312.967 141.795,312.967 142.527 C 312.967 143.260,312.930 143.297,312.198 143.297 C 311.465 143.297,311.429 143.333,311.429 144.066 C 311.429 144.799,311.392 144.835,310.659 144.835 L 309.890 144.835 309.890 146.250 L 309.890 147.664 309.176 147.733 C 308.551 147.794,308.453 147.890,308.394 148.504 C 308.335 149.114,308.235 149.214,307.624 149.273 L 306.923 149.341 306.858 150.824 L 306.793 152.308 306.034 152.308 L 305.275 152.308 305.275 153.846 L 305.275 155.385 304.505 155.385 C 303.776 155.385,303.736 155.423,303.736 156.140 C 303.736 156.831,303.676 156.901,303.022 156.964 L 302.308 157.033 302.243 158.516 C 302.178 159.999,302.177 160.000,301.528 160.000 C 300.933 160.000,300.879 160.064,300.879 160.769 C 300.879 161.502,300.842 161.538,300.110 161.538 C 299.402 161.538,299.341 161.591,299.341 162.198 C 299.341 162.701,299.241 162.857,298.919 162.857 C 297.941 162.857,297.802 163.065,297.802 164.529 L 297.802 165.934 297.033 165.934 L 296.264 165.934 296.264 167.473 L 296.264 169.011 295.495 169.011 L 294.725 169.011 294.725 170.549 L 294.725 172.088 293.956 172.088 C 293.223 172.088,293.187 172.125,293.187 172.857 C 293.187 173.590,293.150 173.626,292.418 173.626 C 291.685 173.626,291.648 173.663,291.648 174.396 C 291.648 175.128,291.612 175.165,290.879 175.165 L 290.110 175.165 290.110 176.579 L 290.110 177.994 289.396 178.063 C 288.771 178.123,288.673 178.220,288.613 178.833 C 288.554 179.444,288.455 179.543,287.844 179.602 L 287.143 179.670 287.143 182.637 L 287.143 185.604 296.209 185.662 L 305.275 185.719 305.275 184.947 C 305.275 184.212,305.311 184.176,306.044 184.176 C 306.777 184.176,306.813 184.139,306.813 183.407 C 306.813 182.674,306.850 182.637,307.582 182.637 C 308.298 182.637,308.352 182.589,308.352 181.947 C 308.352 181.296,308.830 180.678,309.341 180.670 C 309.462 180.668,309.412 180.769,309.231 180.894 C 308.959 181.083,308.978 181.110,309.341 181.053 C 309.722 180.994,309.789 180.789,309.845 179.503 L 309.910 178.022 310.669 178.022 L 311.429 178.022 311.429 176.484 L 311.429 174.945 312.198 174.945 C 312.906 174.945,312.967 174.893,312.967 174.286 C 312.967 173.700,313.040 173.626,313.626 173.626 C 314.231 173.626,314.286 173.564,314.286 172.871 C 314.286 172.180,314.346 172.110,315.000 172.047 C 315.670 171.982,315.716 171.923,315.742 171.099 C 315.813 168.870,315.756 169.011,316.593 169.011 L 317.363 169.011 317.363 167.473 L 317.363 165.934 318.132 165.934 C 318.864 165.934,318.901 165.897,318.901 165.165 C 318.901 164.432,318.938 164.396,319.670 164.396 L 320.440 164.396 320.440 162.857 L 320.440 161.319 321.209 161.319 L 321.978 161.319 321.978 159.904 L 321.978 158.489 322.692 158.421 C 323.317 158.360,323.415 158.264,323.474 157.650 C 323.534 157.040,323.633 156.940,324.244 156.881 C 324.854 156.822,324.954 156.723,325.013 156.112 C 325.072 155.501,325.172 155.402,325.782 155.343 L 326.484 155.275 326.549 153.791 C 326.613 152.309,326.614 152.308,327.263 152.308 L 327.912 152.308 327.912 150.769 L 327.912 149.231 328.681 149.231 C 329.414 149.231,329.451 149.194,329.451 148.462 C 329.451 147.729,329.487 147.692,330.220 147.692 L 330.989 147.692 330.989 146.278 L 330.989 144.863 331.703 144.794 C 332.331 144.734,332.426 144.639,332.486 144.011 C 332.550 143.357,332.619 143.297,333.311 143.297 L 334.066 143.297 334.066 141.758 L 334.066 140.220 334.835 140.220 C 335.568 140.220,335.604 140.183,335.604 139.451 C 335.604 138.718,335.641 138.681,336.374 138.681 L 337.143 138.681 337.143 137.143 L 337.143 135.604 337.912 135.604 C 338.645 135.604,338.681 135.568,338.681 134.835 C 338.681 134.103,338.718 134.066,339.451 134.066 L 340.220 134.066 340.220 132.527 L 340.220 130.989 340.989 130.989 L 341.758 130.989 341.758 129.560 L 341.758 128.132 342.418 128.132 C 343.025 128.132,343.077 128.071,343.077 127.363 C 343.077 126.630,343.114 126.593,343.846 126.593 C 344.579 126.593,344.615 126.557,344.615 125.824 C 344.615 125.092,344.652 125.055,345.385 125.055 L 346.154 125.055 346.154 123.516 L 346.154 121.978 346.923 121.978 L 347.692 121.978 347.692 120.440 L 347.692 118.901 348.462 118.901 C 349.194 118.901,349.231 118.864,349.231 118.132 C 349.231 117.399,349.267 117.363,350.000 117.363 L 350.769 117.363 350.769 115.948 L 350.769 114.533 351.484 114.464 C 352.109 114.404,352.206 114.308,352.266 113.694 C 352.325 113.084,352.424 112.984,353.035 112.925 L 353.736 112.857 353.801 111.387 L 353.866 109.917 354.570 109.848 C 355.187 109.789,355.283 109.692,355.344 109.066 C 355.404 108.438,355.490 108.352,356.058 108.352 L 356.703 108.352 356.703 106.813 L 356.703 105.275 357.473 105.275 C 358.205 105.275,358.242 105.238,358.242 104.505 C 358.242 103.773,358.278 103.736,359.011 103.736 L 359.780 103.736 359.780 102.322 L 359.780 100.907 360.495 100.838 L 361.209 100.769 361.274 99.286 L 361.339 97.802 362.098 97.802 C 362.819 97.802,362.857 97.764,362.857 97.033 C 362.857 96.300,362.894 96.264,363.626 96.264 C 364.359 96.264,364.396 96.227,364.396 95.495 C 364.396 94.762,364.432 94.725,365.165 94.725 L 365.934 94.725 365.934 93.187 L 365.934 91.648 366.703 91.648 L 367.473 91.648 367.473 89.451 L 367.473 87.253 357.582 87.253 L 347.692 87.253 347.692 88.022 M300.879 101.538 L 300.879 102.198 302.308 102.198 L 303.736 102.198 303.736 103.736 L 303.736 105.275 304.499 105.275 L 305.262 105.275 305.323 111.491 L 305.385 117.708 304.615 117.700 C 303.784 117.692,303.807 117.643,303.760 119.492 C 303.737 120.363,303.699 120.415,303.022 120.481 C 302.394 120.541,302.299 120.636,302.239 121.264 C 302.178 121.892,302.092 121.978,301.525 121.978 C 300.933 121.978,300.879 122.043,300.879 122.747 L 300.879 123.516 297.802 123.516 L 294.725 123.516 294.725 122.747 C 294.725 122.017,294.687 121.978,293.970 121.978 C 293.278 121.978,293.209 121.918,293.146 121.264 C 293.085 120.636,292.991 120.541,292.363 120.481 C 291.672 120.414,291.367 119.348,291.634 117.932 C 291.655 117.822,291.543 117.651,291.385 117.551 C 291.166 117.412,291.163 117.369,291.374 117.366 C 291.532 117.364,291.648 117.082,291.648 116.703 C 291.648 116.096,291.587 116.044,290.879 116.044 L 290.110 116.044 290.110 111.429 L 290.110 106.813 290.879 106.813 L 291.648 106.813 291.648 105.275 L 291.648 103.736 292.418 103.736 C 293.150 103.736,293.187 103.700,293.187 102.967 C 293.187 102.199,293.189 102.198,294.231 102.174 C 296.058 102.134,296.152 102.108,296.185 101.648 C 296.203 101.407,296.228 101.135,296.240 101.044 C 296.253 100.953,297.302 100.879,298.571 100.879 L 300.879 100.879 300.879 101.538 M349.380 134.210 C 349.298 134.292,349.231 134.636,349.231 134.974 L 349.231 135.589 346.978 135.652 L 344.725 135.714 344.656 136.429 C 344.596 137.057,344.510 137.143,343.942 137.143 C 343.351 137.143,343.297 137.208,343.297 137.912 L 343.297 138.681 341.770 138.681 L 340.244 138.681 340.290 139.506 L 340.336 140.331 339.509 140.253 C 338.690 140.174,338.681 140.182,338.681 140.966 C 338.681 141.725,338.649 141.758,337.912 141.758 C 337.179 141.758,337.143 141.795,337.143 142.527 C 337.143 143.260,337.106 143.297,336.374 143.297 L 335.604 143.297 335.604 144.835 L 335.604 146.374 334.835 146.374 L 334.066 146.374 334.066 148.571 L 334.066 150.769 333.295 150.769 L 332.523 150.769 332.580 161.374 L 332.637 171.978 333.352 172.047 L 334.066 172.116 334.066 173.530 L 334.066 174.945 334.835 174.945 L 335.604 174.945 335.604 176.484 L 335.604 178.022 336.374 178.022 C 337.106 178.022,337.143 178.059,337.143 178.791 C 337.143 179.524,337.179 179.560,337.912 179.560 C 338.645 179.560,338.681 179.597,338.681 180.330 C 338.681 181.062,338.718 181.099,339.451 181.099 C 340.183 181.099,340.220 181.136,340.220 181.868 C 340.220 182.601,340.256 182.637,340.989 182.637 C 341.722 182.637,341.758 182.674,341.758 183.407 L 341.758 184.176 343.173 184.176 L 344.588 184.176 344.656 184.890 L 344.725 185.604 356.044 185.604 L 367.363 185.604 367.431 184.900 L 367.499 184.195 368.969 184.131 L 370.440 184.066 370.508 183.352 C 370.569 182.724,370.655 182.637,371.223 182.637 C 371.814 182.637,371.868 182.573,371.868 181.868 C 371.868 181.136,371.905 181.099,372.637 181.099 C 373.370 181.099,373.407 181.062,373.407 180.330 C 373.407 179.597,373.443 179.560,374.176 179.560 C 374.908 179.560,374.945 179.524,374.945 178.791 C 374.945 178.059,374.982 178.022,375.714 178.022 C 376.447 178.022,376.484 177.985,376.484 177.253 C 376.484 176.520,376.520 176.484,377.253 176.484 L 378.022 176.484 378.022 175.069 L 378.022 173.654 378.736 173.585 L 379.451 173.516 379.512 170.495 L 379.573 167.473 380.336 167.473 L 381.099 167.473 381.099 159.121 L 381.099 150.769 380.330 150.769 L 379.560 150.769 379.560 148.571 L 379.560 146.374 378.791 146.374 L 378.022 146.374 378.022 144.835 L 378.022 143.297 377.253 143.297 L 376.484 143.297 376.484 141.758 L 376.484 140.220 374.945 140.220 L 373.407 140.220 373.407 139.451 C 373.407 138.718,373.370 138.681,372.637 138.681 C 371.905 138.681,371.868 138.645,371.868 137.912 C 371.868 137.208,371.814 137.143,371.223 137.143 C 370.655 137.143,370.569 137.057,370.508 136.429 L 370.440 135.714 368.200 135.652 L 365.961 135.589 365.892 134.883 L 365.824 134.176 357.677 134.118 C 353.195 134.087,349.462 134.128,349.380 134.210 M341.634 139.098 C 341.701 139.206,341.600 139.354,341.409 139.428 C 340.824 139.652,340.628 139.576,340.925 139.239 C 341.256 138.865,341.464 138.823,341.634 139.098 M359.780 150.000 C 359.780 150.733,359.817 150.769,360.549 150.769 C 361.282 150.769,361.319 150.806,361.319 151.538 C 361.319 152.271,361.355 152.308,362.088 152.308 L 362.857 152.308 362.857 153.846 L 362.857 155.385 363.626 155.385 L 364.396 155.385 364.396 159.876 L 364.396 164.368 363.681 164.437 L 362.967 164.505 362.904 166.758 L 362.842 169.011 362.080 169.011 C 361.358 169.011,361.319 169.051,361.319 169.770 L 361.319 170.529 359.835 170.594 L 358.352 170.659 358.283 171.374 L 358.214 172.088 356.030 172.088 L 353.846 172.088 353.846 171.319 C 353.846 170.589,353.808 170.549,353.091 170.549 C 352.399 170.549,352.330 170.489,352.267 169.835 C 352.206 169.207,352.112 169.113,351.484 169.052 C 350.830 168.989,350.769 168.919,350.769 168.228 C 350.769 167.511,350.730 167.473,350.000 167.473 L 349.231 167.473 349.231 160.659 L 349.231 153.846 350.000 153.846 C 350.733 153.846,350.769 153.810,350.769 153.077 C 350.769 152.344,350.806 152.308,351.538 152.308 C 352.271 152.308,352.308 152.271,352.308 151.538 C 352.308 150.806,352.344 150.769,353.077 150.769 C 353.810 150.769,353.846 150.733,353.846 150.000 L 353.846 149.231 356.813 149.231 L 359.780 149.231 359.780 150.000 " stroke="none" fill="#ffffff" fill-rule="evenodd"></path><path id="path4" d="" stroke="none" fill="#aaffaa" fill-rule="evenodd"></path></g></svg>