<svg id="svg" version="1.1" width="400" height="400.5188067444877" xmlns="http://www.w3.org/2000/svg" xmlns:xlink="http://www.w3.org/1999/xlink" style="display: block;"><g id="svgg"><path id="path0" d="M187.500 0.881 C 186.675 1.100,186.000 1.442,186.000 1.640 C 186.000 1.838,185.758 2.000,185.461 2.000 C 183.782 2.000,179.458 6.091,151.454 34.171 C 116.634 69.086,119.749 65.867,119.389 67.303 C 119.237 67.906,118.960 68.400,118.772 68.400 C 117.927 68.400,117.424 72.103,117.412 78.400 C 117.401 84.679,117.954 88.800,118.809 88.800 C 118.976 88.800,119.215 89.205,119.340 89.700 C 119.465 90.195,119.889 91.034,120.283 91.564 C 121.295 92.924,295.233 266.826,296.557 267.800 C 298.844 269.484,300.950 270.377,303.241 270.636 C 304.548 270.784,305.714 271.062,305.833 271.253 C 306.112 271.704,314.000 271.708,314.000 271.256 C 314.000 271.067,315.015 270.807,316.256 270.679 C 320.907 270.199,322.130 269.229,337.802 253.587 L 352.157 239.259 360.501 247.617 L 368.845 255.974 348.436 276.387 C 337.211 287.614,327.817 296.800,327.560 296.800 C 326.726 296.800,324.000 295.881,324.000 295.600 C 324.000 295.450,322.920 295.000,321.600 294.600 C 320.280 294.200,319.200 293.745,319.200 293.589 C 319.200 293.432,318.390 293.077,317.400 292.800 C 316.410 292.523,315.600 292.163,315.600 292.000 C 315.600 291.837,314.790 291.477,313.800 291.200 C 312.810 290.923,312.000 290.559,312.000 290.391 C 312.000 290.224,310.920 289.763,309.600 289.368 C 308.280 288.972,307.200 288.505,307.200 288.330 C 307.200 288.155,306.390 287.808,305.400 287.558 C 304.410 287.309,303.600 286.951,303.600 286.764 C 303.600 286.576,302.610 286.135,301.400 285.783 C 300.190 285.431,299.200 284.997,299.200 284.819 C 299.200 284.641,298.390 284.291,297.400 284.042 C 296.410 283.792,295.600 283.440,295.600 283.258 C 295.600 283.076,294.848 282.701,293.929 282.426 C 293.010 282.151,291.885 281.687,291.429 281.395 C 290.973 281.104,289.835 280.664,288.900 280.417 C 287.965 280.171,287.200 279.819,287.200 279.637 C 287.200 279.454,286.390 279.077,285.400 278.800 C 284.410 278.523,283.600 278.159,283.600 277.991 C 283.600 277.824,283.111 277.564,282.513 277.414 C 281.915 277.264,280.520 276.716,279.413 276.197 C 278.306 275.677,276.905 275.131,276.300 274.983 C 275.695 274.834,275.200 274.573,275.200 274.401 C 275.200 274.229,274.390 273.849,273.400 273.557 C 272.410 273.265,271.600 272.909,271.600 272.767 C 271.600 272.626,270.567 272.185,269.304 271.787 C 268.041 271.390,266.775 270.833,266.491 270.548 C 266.207 270.264,265.350 269.914,264.587 269.771 C 263.824 269.628,263.200 269.371,263.200 269.200 C 263.200 269.028,262.390 268.649,261.400 268.357 C 260.410 268.065,259.600 267.714,259.600 267.578 C 259.600 267.441,258.565 266.986,257.300 266.565 C 256.035 266.144,254.769 265.582,254.487 265.316 C 254.205 265.049,253.350 264.714,252.587 264.571 C 251.824 264.428,251.200 264.150,251.200 263.954 C 251.200 263.758,250.390 263.380,249.400 263.116 C 248.410 262.851,247.600 262.501,247.600 262.337 C 247.600 262.174,246.610 261.729,245.400 261.347 C 244.190 260.966,243.200 260.526,243.200 260.370 C 243.200 260.214,242.711 259.964,242.113 259.814 C 241.515 259.664,239.548 258.845,237.742 257.995 C 235.935 257.145,233.725 256.230,232.829 255.961 C 231.933 255.693,231.200 255.342,231.200 255.181 C 231.200 255.020,230.390 254.649,229.400 254.357 C 228.410 254.065,227.600 253.715,227.600 253.580 C 227.600 253.444,226.520 252.989,225.200 252.567 C 223.880 252.145,222.800 251.665,222.800 251.500 C 222.800 251.335,222.625 251.200,222.412 251.200 C 222.198 251.200,221.028 250.750,219.812 250.200 C 218.595 249.650,216.583 248.740,215.340 248.178 C 214.097 247.616,212.567 247.053,211.940 246.928 C 211.313 246.803,210.800 246.555,210.800 246.377 C 210.800 246.199,210.395 245.930,209.900 245.779 C 209.063 245.524,208.148 245.130,203.071 242.839 C 202.009 242.360,200.614 241.863,199.971 241.734 C 199.327 241.605,198.800 241.355,198.800 241.177 C 198.800 240.999,198.395 240.730,197.900 240.579 C 197.100 240.335,195.167 239.514,191.400 237.817 C 188.335 236.437,186.373 235.575,183.600 234.389 C 180.078 232.883,176.872 231.470,171.722 229.154 C 170.799 228.740,169.949 228.400,169.834 228.400 C 169.718 228.400,168.583 227.917,167.312 227.327 C 163.593 225.601,155.088 225.584,152.941 227.299 C 152.596 227.575,149.004 231.085,144.958 235.100 C 140.912 239.115,137.435 242.400,137.232 242.400 C 137.028 242.400,134.373 239.969,131.331 236.997 C 122.468 228.340,120.898 227.608,111.173 227.602 C 104.365 227.599,100.737 228.526,97.237 231.164 C 94.844 232.967,5.025 323.006,4.400 324.227 C 4.070 324.872,3.588 325.625,3.329 325.900 C 3.070 326.175,2.636 327.390,2.365 328.600 C 2.094 329.810,1.721 330.800,1.536 330.800 C 1.073 330.800,1.109 343.497,1.573 343.783 C 1.778 343.910,2.167 345.003,2.438 346.212 C 2.708 347.420,3.170 348.609,3.465 348.854 C 3.759 349.098,4.000 349.544,4.000 349.846 C 4.000 350.147,4.360 350.618,4.800 350.893 C 5.240 351.168,5.600 351.596,5.600 351.844 C 5.600 352.499,47.994 394.800,48.649 394.800 C 48.952 394.800,49.200 394.963,49.200 395.162 C 49.200 395.762,52.532 397.522,54.632 398.032 C 55.715 398.294,56.771 398.664,56.980 398.854 C 57.495 399.323,68.234 399.296,69.105 398.823 C 69.487 398.616,70.835 398.142,72.100 397.769 C 73.365 397.396,74.400 396.955,74.400 396.789 C 74.400 396.623,74.816 396.382,75.324 396.255 C 76.700 395.909,75.150 397.423,122.490 350.178 C 167.415 305.342,169.694 302.997,170.448 300.834 C 170.685 300.155,171.023 299.600,171.199 299.600 C 171.376 299.600,171.760 298.655,172.053 297.500 C 173.135 293.234,172.508 278.800,171.240 278.800 C 171.087 278.800,170.718 278.125,170.421 277.300 C 170.123 276.475,169.547 275.565,169.140 275.277 C 168.733 274.990,168.400 274.569,168.400 274.341 C 168.400 274.114,165.970 271.507,163.000 268.549 C 160.030 265.591,157.606 263.043,157.613 262.886 C 157.660 261.866,163.195 256.785,163.870 257.142 C 164.271 257.355,165.680 258.010,167.000 258.599 C 168.320 259.188,170.030 259.981,170.800 260.361 C 171.570 260.741,172.965 261.295,173.900 261.590 C 174.835 261.886,175.600 262.258,175.600 262.417 C 175.600 262.575,176.410 262.909,177.400 263.158 C 178.390 263.408,179.200 263.769,179.200 263.962 C 179.200 264.155,179.689 264.436,180.287 264.586 C 180.885 264.736,182.280 265.284,183.387 265.803 C 184.494 266.323,185.895 266.869,186.500 267.017 C 187.105 267.166,187.600 267.424,187.600 267.591 C 187.600 267.759,188.410 268.123,189.400 268.400 C 190.390 268.677,191.200 269.032,191.200 269.189 C 191.200 269.345,192.280 269.800,193.600 270.200 C 194.920 270.600,196.000 271.055,196.000 271.211 C 196.000 271.368,196.810 271.723,197.800 272.000 C 198.790 272.277,199.600 272.637,199.600 272.800 C 199.600 272.963,200.410 273.323,201.400 273.600 C 202.390 273.877,203.200 274.232,203.200 274.389 C 203.200 274.545,204.280 275.000,205.600 275.400 C 206.920 275.800,208.000 276.271,208.000 276.447 C 208.000 276.624,208.765 276.994,209.700 277.270 C 210.635 277.545,211.631 277.996,211.913 278.270 C 212.195 278.544,213.050 278.886,213.813 279.029 C 214.576 279.172,215.200 279.444,215.200 279.633 C 215.200 279.823,216.190 280.265,217.400 280.617 C 218.610 280.969,219.600 281.410,219.600 281.597 C 219.600 281.784,220.185 282.060,220.900 282.211 C 221.615 282.363,222.740 282.810,223.400 283.205 C 224.060 283.600,225.365 284.149,226.300 284.425 C 227.235 284.701,228.000 285.055,228.000 285.211 C 228.000 285.368,228.810 285.723,229.800 286.000 C 230.790 286.277,231.600 286.637,231.600 286.800 C 231.600 286.963,232.410 287.323,233.400 287.600 C 234.390 287.877,235.200 288.232,235.200 288.389 C 235.200 288.545,236.280 289.000,237.600 289.400 C 238.920 289.800,240.000 290.255,240.000 290.411 C 240.000 290.568,240.810 290.923,241.800 291.200 C 242.790 291.477,243.600 291.841,243.600 292.008 C 243.600 292.175,244.410 292.551,245.400 292.843 C 246.390 293.135,247.200 293.486,247.200 293.622 C 247.200 293.759,248.235 294.214,249.500 294.635 C 250.765 295.056,252.031 295.618,252.313 295.884 C 252.595 296.151,253.450 296.486,254.213 296.629 C 254.976 296.772,255.600 297.035,255.600 297.212 C 255.600 297.390,256.472 297.825,257.538 298.179 C 258.604 298.534,260.172 299.178,261.023 299.612 C 261.873 300.045,262.891 300.400,263.285 300.400 C 263.678 300.400,264.000 300.581,264.000 300.802 C 264.000 301.022,264.810 301.420,265.800 301.684 C 266.790 301.949,267.600 302.299,267.600 302.463 C 267.600 302.626,268.590 303.071,269.800 303.453 C 271.010 303.834,272.000 304.270,272.000 304.421 C 272.000 304.572,272.810 304.923,273.800 305.200 C 274.790 305.477,275.600 305.841,275.600 306.009 C 275.600 306.176,276.082 306.434,276.671 306.582 C 277.260 306.730,278.873 307.380,280.255 308.025 C 281.636 308.671,283.044 309.200,283.383 309.200 C 283.722 309.200,284.000 309.352,284.000 309.537 C 284.000 309.722,284.765 310.102,285.700 310.381 C 286.635 310.660,287.490 311.011,287.600 311.162 C 287.874 311.537,294.879 314.413,295.500 314.406 C 295.775 314.403,296.000 314.580,296.000 314.800 C 296.000 315.020,296.175 315.200,296.390 315.200 C 296.604 315.200,297.980 315.750,299.447 316.421 C 300.913 317.093,302.628 317.746,303.257 317.871 C 303.885 317.997,304.400 318.245,304.400 318.423 C 304.400 318.601,304.805 318.870,305.300 319.021 C 306.135 319.276,308.264 320.205,312.210 322.037 C 313.095 322.448,314.400 322.900,315.110 323.042 C 315.819 323.184,316.400 323.450,316.400 323.634 C 316.400 323.818,317.165 324.191,318.100 324.464 C 319.035 324.738,319.928 325.150,320.085 325.381 C 320.518 326.016,336.483 325.951,336.696 325.313 C 336.785 325.045,337.489 324.707,338.261 324.562 C 339.033 324.417,339.753 324.068,339.861 323.786 C 339.969 323.503,340.492 323.163,341.023 323.030 C 342.164 322.744,394.706 270.314,395.600 268.570 C 395.930 267.927,396.392 267.195,396.626 266.945 C 396.861 266.695,397.279 265.480,397.555 264.245 C 397.831 263.010,398.224 262.000,398.429 262.000 C 399.066 262.000,398.892 250.517,398.239 249.486 C 397.931 248.999,397.547 247.970,397.386 247.200 C 396.817 244.470,394.243 241.410,383.364 230.532 C 377.311 224.478,372.413 219.378,372.479 219.197 C 372.546 219.017,375.525 215.889,379.100 212.246 C 382.675 208.604,385.600 205.348,385.600 205.012 C 385.600 204.675,385.766 204.400,385.969 204.400 C 386.172 204.400,386.544 203.725,386.797 202.900 C 387.049 202.075,387.468 200.967,387.728 200.438 C 389.230 197.378,387.755 181.200,385.973 181.200 C 385.798 181.200,385.527 180.795,385.373 180.300 C 385.070 179.332,209.949 4.000,209.285 4.000 C 209.065 4.000,208.795 3.765,208.685 3.478 C 208.575 3.191,207.746 2.712,206.843 2.414 C 205.939 2.116,205.200 1.736,205.200 1.569 C 205.200 0.509,190.982 -0.044,187.500 0.881 M197.244 31.412 C 197.990 32.188,200.190 34.393,202.133 36.312 C 204.076 38.230,206.416 40.595,207.333 41.566 C 208.250 42.537,209.434 43.707,209.965 44.166 C 210.495 44.625,211.305 45.429,211.765 45.954 C 212.224 46.479,213.395 47.649,214.366 48.554 C 215.337 49.459,216.507 50.634,216.966 51.165 C 217.425 51.695,218.229 52.505,218.754 52.965 C 219.279 53.424,220.449 54.595,221.354 55.566 C 222.259 56.537,223.434 57.707,223.965 58.166 C 224.495 58.625,225.305 59.429,225.765 59.954 C 226.224 60.479,227.395 61.649,228.366 62.554 C 229.337 63.459,230.507 64.634,230.966 65.165 C 231.425 65.695,232.226 66.505,232.747 66.965 C 233.887 67.970,235.881 69.954,237.058 71.253 C 237.529 71.774,240.695 74.949,244.093 78.308 C 247.490 81.667,250.640 84.817,251.093 85.308 C 251.545 85.799,254.695 88.949,258.093 92.308 C 261.490 95.667,264.642 98.817,265.098 99.308 C 265.554 99.799,286.733 120.975,312.163 146.366 C 337.593 171.758,358.400 192.602,358.400 192.687 C 358.400 192.772,347.456 203.778,334.079 217.144 L 309.758 241.446 247.314 179.023 C 212.970 144.690,184.449 116.212,183.935 115.737 C 183.421 115.262,180.275 112.112,176.944 108.737 C 173.613 105.362,170.463 102.216,169.944 101.746 C 169.425 101.277,168.261 100.107,167.357 99.146 C 166.454 98.186,165.284 97.009,164.757 96.532 C 164.231 96.055,161.072 92.905,157.738 89.532 C 154.405 86.159,151.255 83.014,150.738 82.542 C 148.640 80.624,147.130 78.809,147.275 78.376 C 147.462 77.815,195.248 30.000,195.622 30.000 C 195.768 30.000,196.498 30.635,197.244 31.412 M127.154 272.864 C 135.979 281.698,143.200 289.034,143.200 289.164 C 143.200 289.295,125.134 307.467,103.052 329.548 L 62.905 369.694 46.852 353.642 C 38.024 344.814,30.800 337.500,30.800 337.388 C 30.800 337.243,110.652 257.093,111.054 256.835 C 111.084 256.816,118.329 264.029,127.154 272.864 " stroke="none" fill="#ffffff" fill-rule="evenodd"></path><path id="path1" d="M187.500 0.881 C 186.675 1.100,186.000 1.442,186.000 1.640 C 186.000 1.838,185.758 2.000,185.461 2.000 C 183.782 2.000,179.458 6.091,151.454 34.171 C 116.634 69.086,119.749 65.867,119.389 67.303 C 119.237 67.906,118.960 68.400,118.772 68.400 C 117.927 68.400,117.424 72.103,117.412 78.400 C 117.401 84.679,117.954 88.800,118.809 88.800 C 118.976 88.800,119.215 89.205,119.340 89.700 C 119.465 90.195,119.889 91.034,120.283 91.564 C 121.295 92.924,295.233 266.826,296.557 267.800 C 298.844 269.484,300.950 270.377,303.241 270.636 C 304.548 270.784,305.714 271.062,305.833 271.253 C 306.112 271.704,314.000 271.708,314.000 271.256 C 314.000 271.067,315.015 270.807,316.256 270.679 C 320.907 270.199,322.130 269.229,337.802 253.587 L 352.157 239.259 360.501 247.617 L 368.845 255.974 348.436 276.387 C 337.211 287.614,327.817 296.800,327.560 296.800 C 326.726 296.800,324.000 295.881,324.000 295.600 C 324.000 295.450,322.920 295.000,321.600 294.600 C 320.280 294.200,319.200 293.745,319.200 293.589 C 319.200 293.432,318.390 293.077,317.400 292.800 C 316.410 292.523,315.600 292.163,315.600 292.000 C 315.600 291.837,314.790 291.477,313.800 291.200 C 312.810 290.923,312.000 290.559,312.000 290.391 C 312.000 290.224,310.920 289.763,309.600 289.368 C 308.280 288.972,307.200 288.505,307.200 288.330 C 307.200 288.155,306.390 287.808,305.400 287.558 C 304.410 287.309,303.600 286.951,303.600 286.764 C 303.600 286.576,302.610 286.135,301.400 285.783 C 300.190 285.431,299.200 284.997,299.200 284.819 C 299.200 284.641,298.390 284.291,297.400 284.042 C 296.410 283.792,295.600 283.440,295.600 283.258 C 295.600 283.076,294.848 282.701,293.929 282.426 C 293.010 282.151,291.885 281.687,291.429 281.395 C 290.973 281.104,289.835 280.664,288.900 280.417 C 287.965 280.171,287.200 279.819,287.200 279.637 C 287.200 279.454,286.390 279.077,285.400 278.800 C 284.410 278.523,283.600 278.159,283.600 277.991 C 283.600 277.824,283.111 277.564,282.513 277.414 C 281.915 277.264,280.520 276.716,279.413 276.197 C 278.306 275.677,276.905 275.131,276.300 274.983 C 275.695 274.834,275.200 274.573,275.200 274.401 C 275.200 274.229,274.390 273.849,273.400 273.557 C 272.410 273.265,271.600 272.909,271.600 272.767 C 271.600 272.626,270.567 272.185,269.304 271.787 C 268.041 271.390,266.775 270.833,266.491 270.548 C 266.207 270.264,265.350 269.914,264.587 269.771 C 263.824 269.628,263.200 269.371,263.200 269.200 C 263.200 269.028,262.390 268.649,261.400 268.357 C 260.410 268.065,259.600 267.714,259.600 267.578 C 259.600 267.441,258.565 266.986,257.300 266.565 C 256.035 266.144,254.769 265.582,254.487 265.316 C 254.205 265.049,253.350 264.714,252.587 264.571 C 251.824 264.428,251.200 264.150,251.200 263.954 C 251.200 263.758,250.390 263.380,249.400 263.116 C 248.410 262.851,247.600 262.501,247.600 262.337 C 247.600 262.174,246.610 261.729,245.400 261.347 C 244.190 260.966,243.200 260.526,243.200 260.370 C 243.200 260.214,242.711 259.964,242.113 259.814 C 241.515 259.664,239.548 258.845,237.742 257.995 C 235.935 257.145,233.725 256.230,232.829 255.961 C 231.933 255.693,231.200 255.342,231.200 255.181 C 231.200 255.020,230.390 254.649,229.400 254.357 C 228.410 254.065,227.600 253.715,227.600 253.580 C 227.600 253.444,226.520 252.989,225.200 252.567 C 223.880 252.145,222.800 251.665,222.800 251.500 C 222.800 251.335,222.625 251.200,222.412 251.200 C 222.198 251.200,221.028 250.750,219.812 250.200 C 218.595 249.650,216.583 248.740,215.340 248.178 C 214.097 247.616,212.567 247.053,211.940 246.928 C 211.313 246.803,210.800 246.555,210.800 246.377 C 210.800 246.199,210.395 245.930,209.900 245.779 C 209.063 245.524,208.148 245.130,203.071 242.839 C 202.009 242.360,200.614 241.863,199.971 241.734 C 199.327 241.605,198.800 241.355,198.800 241.177 C 198.800 240.999,198.395 240.730,197.900 240.579 C 197.100 240.335,195.167 239.514,191.400 237.817 C 188.335 236.437,186.373 235.575,183.600 234.389 C 180.078 232.883,176.872 231.470,171.722 229.154 C 170.799 228.740,169.949 228.400,169.834 228.400 C 169.718 228.400,168.583 227.917,167.312 227.327 C 163.593 225.601,155.088 225.584,152.941 227.299 C 152.596 227.575,149.004 231.085,144.958 235.100 C 140.912 239.115,137.435 242.400,137.232 242.400 C 137.028 242.400,134.373 239.969,131.331 236.997 C 122.468 228.340,120.898 227.608,111.173 227.602 C 104.365 227.599,100.737 228.526,97.237 231.164 C 94.844 232.967,5.025 323.006,4.400 324.227 C 4.070 324.872,3.588 325.625,3.329 325.900 C 3.070 326.175,2.636 327.390,2.365 328.600 C 2.094 329.810,1.721 330.800,1.536 330.800 C 1.073 330.800,1.109 343.497,1.573 343.783 C 1.778 343.910,2.167 345.003,2.438 346.212 C 2.708 347.420,3.170 348.609,3.465 348.854 C 3.759 349.098,4.000 349.544,4.000 349.846 C 4.000 350.147,4.360 350.618,4.800 350.893 C 5.240 351.168,5.600 351.596,5.600 351.844 C 5.600 352.499,47.994 394.800,48.649 394.800 C 48.952 394.800,49.200 394.963,49.200 395.162 C 49.200 395.762,52.532 397.522,54.632 398.032 C 55.715 398.294,56.771 398.664,56.980 398.854 C 57.495 399.323,68.234 399.296,69.105 398.823 C 69.487 398.616,70.835 398.142,72.100 397.769 C 73.365 397.396,74.400 396.955,74.400 396.789 C 74.400 396.623,74.816 396.382,75.324 396.255 C 76.700 395.909,75.150 397.423,122.490 350.178 C 167.415 305.342,169.694 302.997,170.448 300.834 C 170.685 300.155,171.023 299.600,171.199 299.600 C 171.376 299.600,171.760 298.655,172.053 297.500 C 173.135 293.234,172.508 278.800,171.240 278.800 C 171.087 278.800,170.718 278.125,170.421 277.300 C 170.123 276.475,169.547 275.565,169.140 275.277 C 168.733 274.990,168.400 274.569,168.400 274.341 C 168.400 274.114,165.970 271.507,163.000 268.549 C 160.030 265.591,157.606 263.043,157.613 262.886 C 157.660 261.866,163.195 256.785,163.870 257.142 C 164.271 257.355,165.680 258.010,167.000 258.599 C 168.320 259.188,170.030 259.981,170.800 260.361 C 171.570 260.741,172.965 261.295,173.900 261.590 C 174.835 261.886,175.600 262.258,175.600 262.417 C 175.600 262.575,176.410 262.909,177.400 263.158 C 178.390 263.408,179.200 263.769,179.200 263.962 C 179.200 264.155,179.689 264.436,180.287 264.586 C 180.885 264.736,182.280 265.284,183.387 265.803 C 184.494 266.323,185.895 266.869,186.500 267.017 C 187.105 267.166,187.600 267.424,187.600 267.591 C 187.600 267.759,188.410 268.123,189.400 268.400 C 190.390 268.677,191.200 269.032,191.200 269.189 C 191.200 269.345,192.280 269.800,193.600 270.200 C 194.920 270.600,196.000 271.055,196.000 271.211 C 196.000 271.368,196.810 271.723,197.800 272.000 C 198.790 272.277,199.600 272.637,199.600 272.800 C 199.600 272.963,200.410 273.323,201.400 273.600 C 202.390 273.877,203.200 274.232,203.200 274.389 C 203.200 274.545,204.280 275.000,205.600 275.400 C 206.920 275.800,208.000 276.271,208.000 276.447 C 208.000 276.624,208.765 276.994,209.700 277.270 C 210.635 277.545,211.631 277.996,211.913 278.270 C 212.195 278.544,213.050 278.886,213.813 279.029 C 214.576 279.172,215.200 279.444,215.200 279.633 C 215.200 279.823,216.190 280.265,217.400 280.617 C 218.610 280.969,219.600 281.410,219.600 281.597 C 219.600 281.784,220.185 282.060,220.900 282.211 C 221.615 282.363,222.740 282.810,223.400 283.205 C 224.060 283.600,225.365 284.149,226.300 284.425 C 227.235 284.701,228.000 285.055,228.000 285.211 C 228.000 285.368,228.810 285.723,229.800 286.000 C 230.790 286.277,231.600 286.637,231.600 286.800 C 231.600 286.963,232.410 287.323,233.400 287.600 C 234.390 287.877,235.200 288.232,235.200 288.389 C 235.200 288.545,236.280 289.000,237.600 289.400 C 238.920 289.800,240.000 290.255,240.000 290.411 C 240.000 290.568,240.810 290.923,241.800 291.200 C 242.790 291.477,243.600 291.841,243.600 292.008 C 243.600 292.175,244.410 292.551,245.400 292.843 C 246.390 293.135,247.200 293.486,247.200 293.622 C 247.200 293.759,248.235 294.214,249.500 294.635 C 250.765 295.056,252.031 295.618,252.313 295.884 C 252.595 296.151,253.450 296.486,254.213 296.629 C 254.976 296.772,255.600 297.035,255.600 297.212 C 255.600 297.390,256.472 297.825,257.538 298.179 C 258.604 298.534,260.172 299.178,261.023 299.612 C 261.873 300.045,262.891 300.400,263.285 300.400 C 263.678 300.400,264.000 300.581,264.000 300.802 C 264.000 301.022,264.810 301.420,265.800 301.684 C 266.790 301.949,267.600 302.299,267.600 302.463 C 267.600 302.626,268.590 303.071,269.800 303.453 C 271.010 303.834,272.000 304.270,272.000 304.421 C 272.000 304.572,272.810 304.923,273.800 305.200 C 274.790 305.477,275.600 305.841,275.600 306.009 C 275.600 306.176,276.082 306.434,276.671 306.582 C 277.260 306.730,278.873 307.380,280.255 308.025 C 281.636 308.671,283.044 309.200,283.383 309.200 C 283.722 309.200,284.000 309.352,284.000 309.537 C 284.000 309.722,284.765 310.102,285.700 310.381 C 286.635 310.660,287.490 311.011,287.600 311.162 C 287.874 311.537,294.879 314.413,295.500 314.406 C 295.775 314.403,296.000 314.580,296.000 314.800 C 296.000 315.020,296.175 315.200,296.390 315.200 C 296.604 315.200,297.980 315.750,299.447 316.421 C 300.913 317.093,302.628 317.746,303.257 317.871 C 303.885 317.997,304.400 318.245,304.400 318.423 C 304.400 318.601,304.805 318.870,305.300 319.021 C 306.135 319.276,308.264 320.205,312.210 322.037 C 313.095 322.448,314.400 322.900,315.110 323.042 C 315.819 323.184,316.400 323.450,316.400 323.634 C 316.400 323.818,317.165 324.191,318.100 324.464 C 319.035 324.738,319.928 325.150,320.085 325.381 C 320.518 326.016,336.483 325.951,336.696 325.313 C 336.785 325.045,337.489 324.707,338.261 324.562 C 339.033 324.417,339.753 324.068,339.861 323.786 C 339.969 323.503,340.492 323.163,341.023 323.030 C 342.164 322.744,394.706 270.314,395.600 268.570 C 395.930 267.927,396.392 267.195,396.626 266.945 C 396.861 266.695,397.279 265.480,397.555 264.245 C 397.831 263.010,398.224 262.000,398.429 262.000 C 399.066 262.000,398.892 250.517,398.239 249.486 C 397.931 248.999,397.547 247.970,397.386 247.200 C 396.817 244.470,394.243 241.410,383.364 230.532 C 377.311 224.478,372.413 219.378,372.479 219.197 C 372.546 219.017,375.525 215.889,379.100 212.246 C 382.675 208.604,385.600 205.348,385.600 205.012 C 385.600 204.675,385.766 204.400,385.969 204.400 C 386.172 204.400,386.544 203.725,386.797 202.900 C 387.049 202.075,387.468 200.967,387.728 200.438 C 389.230 197.378,387.755 181.200,385.973 181.200 C 385.798 181.200,385.527 180.795,385.373 180.300 C 385.070 179.332,209.949 4.000,209.285 4.000 C 209.065 4.000,208.795 3.765,208.685 3.478 C 208.575 3.191,207.746 2.712,206.843 2.414 C 205.939 2.116,205.200 1.736,205.200 1.569 C 205.200 0.509,190.982 -0.044,187.500 0.881 M197.244 31.412 C 197.990 32.188,200.190 34.393,202.133 36.312 C 204.076 38.230,206.416 40.595,207.333 41.566 C 208.250 42.537,209.434 43.707,209.965 44.166 C 210.495 44.625,211.305 45.429,211.765 45.954 C 212.224 46.479,213.395 47.649,214.366 48.554 C 215.337 49.459,216.507 50.634,216.966 51.165 C 217.425 51.695,218.229 52.505,218.754 52.965 C 219.279 53.424,220.449 54.595,221.354 55.566 C 222.259 56.537,223.434 57.707,223.965 58.166 C 224.495 58.625,225.305 59.429,225.765 59.954 C 226.224 60.479,227.395 61.649,228.366 62.554 C 229.337 63.459,230.507 64.634,230.966 65.165 C 231.425 65.695,232.226 66.505,232.747 66.965 C 233.887 67.970,235.881 69.954,237.058 71.253 C 237.529 71.774,240.695 74.949,244.093 78.308 C 247.490 81.667,250.640 84.817,251.093 85.308 C 251.545 85.799,254.695 88.949,258.093 92.308 C 261.490 95.667,264.642 98.817,265.098 99.308 C 265.554 99.799,286.733 120.975,312.163 146.366 C 337.593 171.758,358.400 192.602,358.400 192.687 C 358.400 192.772,347.456 203.778,334.079 217.144 L 309.758 241.446 247.314 179.023 C 212.970 144.690,184.449 116.212,183.935 115.737 C 183.421 115.262,180.275 112.112,176.944 108.737 C 173.613 105.362,170.463 102.216,169.944 101.746 C 169.425 101.277,168.261 100.107,167.357 99.146 C 166.454 98.186,165.284 97.009,164.757 96.532 C 164.231 96.055,161.072 92.905,157.738 89.532 C 154.405 86.159,151.255 83.014,150.738 82.542 C 148.640 80.624,147.130 78.809,147.275 78.376 C 147.462 77.815,195.248 30.000,195.622 30.000 C 195.768 30.000,196.498 30.635,197.244 31.412 M127.154 272.864 C 135.979 281.698,143.200 289.034,143.200 289.164 C 143.200 289.295,125.134 307.467,103.052 329.548 L 62.905 369.694 46.852 353.642 C 38.024 344.814,30.800 337.500,30.800 337.388 C 30.800 337.243,110.652 257.093,111.054 256.835 C 111.084 256.816,118.329 264.029,127.154 272.864 " stroke="none" fill="#ffffff" fill-rule="evenodd"></path><path id="path2" d="M187.500 0.881 C 186.675 1.100,186.000 1.442,186.000 1.640 C 186.000 1.838,185.758 2.000,185.461 2.000 C 183.782 2.000,179.458 6.091,151.454 34.171 C 116.634 69.086,119.749 65.867,119.389 67.303 C 119.237 67.906,118.960 68.400,118.772 68.400 C 117.927 68.400,117.424 72.103,117.412 78.400 C 117.401 84.679,117.954 88.800,118.809 88.800 C 118.976 88.800,119.215 89.205,119.340 89.700 C 119.465 90.195,119.889 91.034,120.283 91.564 C 121.295 92.924,295.233 266.826,296.557 267.800 C 298.844 269.484,300.950 270.377,303.241 270.636 C 304.548 270.784,305.714 271.062,305.833 271.253 C 306.112 271.704,314.000 271.708,314.000 271.256 C 314.000 271.067,315.015 270.807,316.256 270.679 C 320.907 270.199,322.130 269.229,337.802 253.587 L 352.157 239.259 360.501 247.617 L 368.845 255.974 348.436 276.387 C 337.211 287.614,327.817 296.800,327.560 296.800 C 326.726 296.800,324.000 295.881,324.000 295.600 C 324.000 295.450,322.920 295.000,321.600 294.600 C 320.280 294.200,319.200 293.745,319.200 293.589 C 319.200 293.432,318.390 293.077,317.400 292.800 C 316.410 292.523,315.600 292.163,315.600 292.000 C 315.600 291.837,314.790 291.477,313.800 291.200 C 312.810 290.923,312.000 290.559,312.000 290.391 C 312.000 290.224,310.920 289.763,309.600 289.368 C 308.280 288.972,307.200 288.505,307.200 288.330 C 307.200 288.155,306.390 287.808,305.400 287.558 C 304.410 287.309,303.600 286.951,303.600 286.764 C 303.600 286.576,302.610 286.135,301.400 285.783 C 300.190 285.431,299.200 284.997,299.200 284.819 C 299.200 284.641,298.390 284.291,297.400 284.042 C 296.410 283.792,295.600 283.440,295.600 283.258 C 295.600 283.076,294.848 282.701,293.929 282.426 C 293.010 282.151,291.885 281.687,291.429 281.395 C 290.973 281.104,289.835 280.664,288.900 280.417 C 287.965 280.171,287.200 279.819,287.200 279.637 C 287.200 279.454,286.390 279.077,285.400 278.800 C 284.410 278.523,283.600 278.159,283.600 277.991 C 283.600 277.824,283.111 277.564,282.513 277.414 C 281.915 277.264,280.520 276.716,279.413 276.197 C 278.306 275.677,276.905 275.131,276.300 274.983 C 275.695 274.834,275.200 274.573,275.200 274.401 C 275.200 274.229,274.390 273.849,273.400 273.557 C 272.410 273.265,271.600 272.909,271.600 272.767 C 271.600 272.626,270.567 272.185,269.304 271.787 C 268.041 271.390,266.775 270.833,266.491 270.548 C 266.207 270.264,265.350 269.914,264.587 269.771 C 263.824 269.628,263.200 269.371,263.200 269.200 C 263.200 269.028,262.390 268.649,261.400 268.357 C 260.410 268.065,259.600 267.714,259.600 267.578 C 259.600 267.441,258.565 266.986,257.300 266.565 C 256.035 266.144,254.769 265.582,254.487 265.316 C 254.205 265.049,253.350 264.714,252.587 264.571 C 251.824 264.428,251.200 264.150,251.200 263.954 C 251.200 263.758,250.390 263.380,249.400 263.116 C 248.410 262.851,247.600 262.501,247.600 262.337 C 247.600 262.174,246.610 261.729,245.400 261.347 C 244.190 260.966,243.200 260.526,243.200 260.370 C 243.200 260.214,242.711 259.964,242.113 259.814 C 241.515 259.664,239.548 258.845,237.742 257.995 C 235.935 257.145,233.725 256.230,232.829 255.961 C 231.933 255.693,231.200 255.342,231.200 255.181 C 231.200 255.020,230.390 254.649,229.400 254.357 C 228.410 254.065,227.600 253.715,227.600 253.580 C 227.600 253.444,226.520 252.989,225.200 252.567 C 223.880 252.145,222.800 251.665,222.800 251.500 C 222.800 251.335,222.625 251.200,222.412 251.200 C 222.198 251.200,221.028 250.750,219.812 250.200 C 218.595 249.650,216.583 248.740,215.340 248.178 C 214.097 247.616,212.567 247.053,211.940 246.928 C 211.313 246.803,210.800 246.555,210.800 246.377 C 210.800 246.199,210.395 245.930,209.900 245.779 C 209.063 245.524,208.148 245.130,203.071 242.839 C 202.009 242.360,200.614 241.863,199.971 241.734 C 199.327 241.605,198.800 241.355,198.800 241.177 C 198.800 240.999,198.395 240.730,197.900 240.579 C 197.100 240.335,195.167 239.514,191.400 237.817 C 188.335 236.437,186.373 235.575,183.600 234.389 C 180.078 232.883,176.872 231.470,171.722 229.154 C 170.799 228.740,169.949 228.400,169.834 228.400 C 169.718 228.400,168.583 227.917,167.312 227.327 C 163.593 225.601,155.088 225.584,152.941 227.299 C 152.596 227.575,149.004 231.085,144.958 235.100 C 140.912 239.115,137.435 242.400,137.232 242.400 C 137.028 242.400,134.373 239.969,131.331 236.997 C 122.468 228.340,120.898 227.608,111.173 227.602 C 104.365 227.599,100.737 228.526,97.237 231.164 C 94.844 232.967,5.025 323.006,4.400 324.227 C 4.070 324.872,3.588 325.625,3.329 325.900 C 3.070 326.175,2.636 327.390,2.365 328.600 C 2.094 329.810,1.721 330.800,1.536 330.800 C 1.073 330.800,1.109 343.497,1.573 343.783 C 1.778 343.910,2.167 345.003,2.438 346.212 C 2.708 347.420,3.170 348.609,3.465 348.854 C 3.759 349.098,4.000 349.544,4.000 349.846 C 4.000 350.147,4.360 350.618,4.800 350.893 C 5.240 351.168,5.600 351.596,5.600 351.844 C 5.600 352.499,47.994 394.800,48.649 394.800 C 48.952 394.800,49.200 394.963,49.200 395.162 C 49.200 395.762,52.532 397.522,54.632 398.032 C 55.715 398.294,56.771 398.664,56.980 398.854 C 57.495 399.323,68.234 399.296,69.105 398.823 C 69.487 398.616,70.835 398.142,72.100 397.769 C 73.365 397.396,74.400 396.955,74.400 396.789 C 74.400 396.623,74.816 396.382,75.324 396.255 C 76.700 395.909,75.150 397.423,122.490 350.178 C 167.415 305.342,169.694 302.997,170.448 300.834 C 170.685 300.155,171.023 299.600,171.199 299.600 C 171.376 299.600,171.760 298.655,172.053 297.500 C 173.135 293.234,172.508 278.800,171.240 278.800 C 171.087 278.800,170.718 278.125,170.421 277.300 C 170.123 276.475,169.547 275.565,169.140 275.277 C 168.733 274.990,168.400 274.569,168.400 274.341 C 168.400 274.114,165.970 271.507,163.000 268.549 C 160.030 265.591,157.606 263.043,157.613 262.886 C 157.660 261.866,163.195 256.785,163.870 257.142 C 164.271 257.355,165.680 258.010,167.000 258.599 C 168.320 259.188,170.030 259.981,170.800 260.361 C 171.570 260.741,172.965 261.295,173.900 261.590 C 174.835 261.886,175.600 262.258,175.600 262.417 C 175.600 262.575,176.410 262.909,177.400 263.158 C 178.390 263.408,179.200 263.769,179.200 263.962 C 179.200 264.155,179.689 264.436,180.287 264.586 C 180.885 264.736,182.280 265.284,183.387 265.803 C 184.494 266.323,185.895 266.869,186.500 267.017 C 187.105 267.166,187.600 267.424,187.600 267.591 C 187.600 267.759,188.410 268.123,189.400 268.400 C 190.390 268.677,191.200 269.032,191.200 269.189 C 191.200 269.345,192.280 269.800,193.600 270.200 C 194.920 270.600,196.000 271.055,196.000 271.211 C 196.000 271.368,196.810 271.723,197.800 272.000 C 198.790 272.277,199.600 272.637,199.600 272.800 C 199.600 272.963,200.410 273.323,201.400 273.600 C 202.390 273.877,203.200 274.232,203.200 274.389 C 203.200 274.545,204.280 275.000,205.600 275.400 C 206.920 275.800,208.000 276.271,208.000 276.447 C 208.000 276.624,208.765 276.994,209.700 277.270 C 210.635 277.545,211.631 277.996,211.913 278.270 C 212.195 278.544,213.050 278.886,213.813 279.029 C 214.576 279.172,215.200 279.444,215.200 279.633 C 215.200 279.823,216.190 280.265,217.400 280.617 C 218.610 280.969,219.600 281.410,219.600 281.597 C 219.600 281.784,220.185 282.060,220.900 282.211 C 221.615 282.363,222.740 282.810,223.400 283.205 C 224.060 283.600,225.365 284.149,226.300 284.425 C 227.235 284.701,228.000 285.055,228.000 285.211 C 228.000 285.368,228.810 285.723,229.800 286.000 C 230.790 286.277,231.600 286.637,231.600 286.800 C 231.600 286.963,232.410 287.323,233.400 287.600 C 234.390 287.877,235.200 288.232,235.200 288.389 C 235.200 288.545,236.280 289.000,237.600 289.400 C 238.920 289.800,240.000 290.255,240.000 290.411 C 240.000 290.568,240.810 290.923,241.800 291.200 C 242.790 291.477,243.600 291.841,243.600 292.008 C 243.600 292.175,244.410 292.551,245.400 292.843 C 246.390 293.135,247.200 293.486,247.200 293.622 C 247.200 293.759,248.235 294.214,249.500 294.635 C 250.765 295.056,252.031 295.618,252.313 295.884 C 252.595 296.151,253.450 296.486,254.213 296.629 C 254.976 296.772,255.600 297.035,255.600 297.212 C 255.600 297.390,256.472 297.825,257.538 298.179 C 258.604 298.534,260.172 299.178,261.023 299.612 C 261.873 300.045,262.891 300.400,263.285 300.400 C 263.678 300.400,264.000 300.581,264.000 300.802 C 264.000 301.022,264.810 301.420,265.800 301.684 C 266.790 301.949,267.600 302.299,267.600 302.463 C 267.600 302.626,268.590 303.071,269.800 303.453 C 271.010 303.834,272.000 304.270,272.000 304.421 C 272.000 304.572,272.810 304.923,273.800 305.200 C 274.790 305.477,275.600 305.841,275.600 306.009 C 275.600 306.176,276.082 306.434,276.671 306.582 C 277.260 306.730,278.873 307.380,280.255 308.025 C 281.636 308.671,283.044 309.200,283.383 309.200 C 283.722 309.200,284.000 309.352,284.000 309.537 C 284.000 309.722,284.765 310.102,285.700 310.381 C 286.635 310.660,287.490 311.011,287.600 311.162 C 287.874 311.537,294.879 314.413,295.500 314.406 C 295.775 314.403,296.000 314.580,296.000 314.800 C 296.000 315.020,296.175 315.200,296.390 315.200 C 296.604 315.200,297.980 315.750,299.447 316.421 C 300.913 317.093,302.628 317.746,303.257 317.871 C 303.885 317.997,304.400 318.245,304.400 318.423 C 304.400 318.601,304.805 318.870,305.300 319.021 C 306.135 319.276,308.264 320.205,312.210 322.037 C 313.095 322.448,314.400 322.900,315.110 323.042 C 315.819 323.184,316.400 323.450,316.400 323.634 C 316.400 323.818,317.165 324.191,318.100 324.464 C 319.035 324.738,319.928 325.150,320.085 325.381 C 320.518 326.016,336.483 325.951,336.696 325.313 C 336.785 325.045,337.489 324.707,338.261 324.562 C 339.033 324.417,339.753 324.068,339.861 323.786 C 339.969 323.503,340.492 323.163,341.023 323.030 C 342.164 322.744,394.706 270.314,395.600 268.570 C 395.930 267.927,396.392 267.195,396.626 266.945 C 396.861 266.695,397.279 265.480,397.555 264.245 C 397.831 263.010,398.224 262.000,398.429 262.000 C 399.066 262.000,398.892 250.517,398.239 249.486 C 397.931 248.999,397.547 247.970,397.386 247.200 C 396.817 244.470,394.243 241.410,383.364 230.532 C 377.311 224.478,372.413 219.378,372.479 219.197 C 372.546 219.017,375.525 215.889,379.100 212.246 C 382.675 208.604,385.600 205.348,385.600 205.012 C 385.600 204.675,385.766 204.400,385.969 204.400 C 386.172 204.400,386.544 203.725,386.797 202.900 C 387.049 202.075,387.468 200.967,387.728 200.438 C 389.230 197.378,387.755 181.200,385.973 181.200 C 385.798 181.200,385.527 180.795,385.373 180.300 C 385.070 179.332,209.949 4.000,209.285 4.000 C 209.065 4.000,208.795 3.765,208.685 3.478 C 208.575 3.191,207.746 2.712,206.843 2.414 C 205.939 2.116,205.200 1.736,205.200 1.569 C 205.200 0.509,190.982 -0.044,187.500 0.881 M197.244 31.412 C 197.990 32.188,200.190 34.393,202.133 36.312 C 204.076 38.230,206.416 40.595,207.333 41.566 C 208.250 42.537,209.434 43.707,209.965 44.166 C 210.495 44.625,211.305 45.429,211.765 45.954 C 212.224 46.479,213.395 47.649,214.366 48.554 C 215.337 49.459,216.507 50.634,216.966 51.165 C 217.425 51.695,218.229 52.505,218.754 52.965 C 219.279 53.424,220.449 54.595,221.354 55.566 C 222.259 56.537,223.434 57.707,223.965 58.166 C 224.495 58.625,225.305 59.429,225.765 59.954 C 226.224 60.479,227.395 61.649,228.366 62.554 C 229.337 63.459,230.507 64.634,230.966 65.165 C 231.425 65.695,232.226 66.505,232.747 66.965 C 233.887 67.970,235.881 69.954,237.058 71.253 C 237.529 71.774,240.695 74.949,244.093 78.308 C 247.490 81.667,250.640 84.817,251.093 85.308 C 251.545 85.799,254.695 88.949,258.093 92.308 C 261.490 95.667,264.642 98.817,265.098 99.308 C 265.554 99.799,286.733 120.975,312.163 146.366 C 337.593 171.758,358.400 192.602,358.400 192.687 C 358.400 192.772,347.456 203.778,334.079 217.144 L 309.758 241.446 247.314 179.023 C 212.970 144.690,184.449 116.212,183.935 115.737 C 183.421 115.262,180.275 112.112,176.944 108.737 C 173.613 105.362,170.463 102.216,169.944 101.746 C 169.425 101.277,168.261 100.107,167.357 99.146 C 166.454 98.186,165.284 97.009,164.757 96.532 C 164.231 96.055,161.072 92.905,157.738 89.532 C 154.405 86.159,151.255 83.014,150.738 82.542 C 148.640 80.624,147.130 78.809,147.275 78.376 C 147.462 77.815,195.248 30.000,195.622 30.000 C 195.768 30.000,196.498 30.635,197.244 31.412 M127.154 272.864 C 135.979 281.698,143.200 289.034,143.200 289.164 C 143.200 289.295,125.134 307.467,103.052 329.548 L 62.905 369.694 46.852 353.642 C 38.024 344.814,30.800 337.500,30.800 337.388 C 30.800 337.243,110.652 257.093,111.054 256.835 C 111.084 256.816,118.329 264.029,127.154 272.864 " stroke="none" fill="#ffffff" fill-rule="evenodd"></path><path id="path3" d="M187.500 0.881 C 186.675 1.100,186.000 1.442,186.000 1.640 C 186.000 1.838,185.758 2.000,185.461 2.000 C 183.782 2.000,179.458 6.091,151.454 34.171 C 116.634 69.086,119.749 65.867,119.389 67.303 C 119.237 67.906,118.960 68.400,118.772 68.400 C 117.927 68.400,117.424 72.103,117.412 78.400 C 117.401 84.679,117.954 88.800,118.809 88.800 C 118.976 88.800,119.215 89.205,119.340 89.700 C 119.465 90.195,119.889 91.034,120.283 91.564 C 121.295 92.924,295.233 266.826,296.557 267.800 C 298.844 269.484,300.950 270.377,303.241 270.636 C 304.548 270.784,305.714 271.062,305.833 271.253 C 306.112 271.704,314.000 271.708,314.000 271.256 C 314.000 271.067,315.015 270.807,316.256 270.679 C 320.907 270.199,322.130 269.229,337.802 253.587 L 352.157 239.259 360.501 247.617 L 368.845 255.974 348.436 276.387 C 337.211 287.614,327.817 296.800,327.560 296.800 C 326.726 296.800,324.000 295.881,324.000 295.600 C 324.000 295.450,322.920 295.000,321.600 294.600 C 320.280 294.200,319.200 293.745,319.200 293.589 C 319.200 293.432,318.390 293.077,317.400 292.800 C 316.410 292.523,315.600 292.163,315.600 292.000 C 315.600 291.837,314.790 291.477,313.800 291.200 C 312.810 290.923,312.000 290.559,312.000 290.391 C 312.000 290.224,310.920 289.763,309.600 289.368 C 308.280 288.972,307.200 288.505,307.200 288.330 C 307.200 288.155,306.390 287.808,305.400 287.558 C 304.410 287.309,303.600 286.951,303.600 286.764 C 303.600 286.576,302.610 286.135,301.400 285.783 C 300.190 285.431,299.200 284.997,299.200 284.819 C 299.200 284.641,298.390 284.291,297.400 284.042 C 296.410 283.792,295.600 283.440,295.600 283.258 C 295.600 283.076,294.848 282.701,293.929 282.426 C 293.010 282.151,291.885 281.687,291.429 281.395 C 290.973 281.104,289.835 280.664,288.900 280.417 C 287.965 280.171,287.200 279.819,287.200 279.637 C 287.200 279.454,286.390 279.077,285.400 278.800 C 284.410 278.523,283.600 278.159,283.600 277.991 C 283.600 277.824,283.111 277.564,282.513 277.414 C 281.915 277.264,280.520 276.716,279.413 276.197 C 278.306 275.677,276.905 275.131,276.300 274.983 C 275.695 274.834,275.200 274.573,275.200 274.401 C 275.200 274.229,274.390 273.849,273.400 273.557 C 272.410 273.265,271.600 272.909,271.600 272.767 C 271.600 272.626,270.567 272.185,269.304 271.787 C 268.041 271.390,266.775 270.833,266.491 270.548 C 266.207 270.264,265.350 269.914,264.587 269.771 C 263.824 269.628,263.200 269.371,263.200 269.200 C 263.200 269.028,262.390 268.649,261.400 268.357 C 260.410 268.065,259.600 267.714,259.600 267.578 C 259.600 267.441,258.565 266.986,257.300 266.565 C 256.035 266.144,254.769 265.582,254.487 265.316 C 254.205 265.049,253.350 264.714,252.587 264.571 C 251.824 264.428,251.200 264.150,251.200 263.954 C 251.200 263.758,250.390 263.380,249.400 263.116 C 248.410 262.851,247.600 262.501,247.600 262.337 C 247.600 262.174,246.610 261.729,245.400 261.347 C 244.190 260.966,243.200 260.526,243.200 260.370 C 243.200 260.214,242.711 259.964,242.113 259.814 C 241.515 259.664,239.548 258.845,237.742 257.995 C 235.935 257.145,233.725 256.230,232.829 255.961 C 231.933 255.693,231.200 255.342,231.200 255.181 C 231.200 255.020,230.390 254.649,229.400 254.357 C 228.410 254.065,227.600 253.715,227.600 253.580 C 227.600 253.444,226.520 252.989,225.200 252.567 C 223.880 252.145,222.800 251.665,222.800 251.500 C 222.800 251.335,222.625 251.200,222.412 251.200 C 222.198 251.200,221.028 250.750,219.812 250.200 C 218.595 249.650,216.583 248.740,215.340 248.178 C 214.097 247.616,212.567 247.053,211.940 246.928 C 211.313 246.803,210.800 246.555,210.800 246.377 C 210.800 246.199,210.395 245.930,209.900 245.779 C 209.063 245.524,208.148 245.130,203.071 242.839 C 202.009 242.360,200.614 241.863,199.971 241.734 C 199.327 241.605,198.800 241.355,198.800 241.177 C 198.800 240.999,198.395 240.730,197.900 240.579 C 197.100 240.335,195.167 239.514,191.400 237.817 C 188.335 236.437,186.373 235.575,183.600 234.389 C 180.078 232.883,176.872 231.470,171.722 229.154 C 170.799 228.740,169.949 228.400,169.834 228.400 C 169.718 228.400,168.583 227.917,167.312 227.327 C 163.593 225.601,155.088 225.584,152.941 227.299 C 152.596 227.575,149.004 231.085,144.958 235.100 C 140.912 239.115,137.435 242.400,137.232 242.400 C 137.028 242.400,134.373 239.969,131.331 236.997 C 122.468 228.340,120.898 227.608,111.173 227.602 C 104.365 227.599,100.737 228.526,97.237 231.164 C 94.844 232.967,5.025 323.006,4.400 324.227 C 4.070 324.872,3.588 325.625,3.329 325.900 C 3.070 326.175,2.636 327.390,2.365 328.600 C 2.094 329.810,1.721 330.800,1.536 330.800 C 1.073 330.800,1.109 343.497,1.573 343.783 C 1.778 343.910,2.167 345.003,2.438 346.212 C 2.708 347.420,3.170 348.609,3.465 348.854 C 3.759 349.098,4.000 349.544,4.000 349.846 C 4.000 350.147,4.360 350.618,4.800 350.893 C 5.240 351.168,5.600 351.596,5.600 351.844 C 5.600 352.499,47.994 394.800,48.649 394.800 C 48.952 394.800,49.200 394.963,49.200 395.162 C 49.200 395.762,52.532 397.522,54.632 398.032 C 55.715 398.294,56.771 398.664,56.980 398.854 C 57.495 399.323,68.234 399.296,69.105 398.823 C 69.487 398.616,70.835 398.142,72.100 397.769 C 73.365 397.396,74.400 396.955,74.400 396.789 C 74.400 396.623,74.816 396.382,75.324 396.255 C 76.700 395.909,75.150 397.423,122.490 350.178 C 167.415 305.342,169.694 302.997,170.448 300.834 C 170.685 300.155,171.023 299.600,171.199 299.600 C 171.376 299.600,171.760 298.655,172.053 297.500 C 173.135 293.234,172.508 278.800,171.240 278.800 C 171.087 278.800,170.718 278.125,170.421 277.300 C 170.123 276.475,169.547 275.565,169.140 275.277 C 168.733 274.990,168.400 274.569,168.400 274.341 C 168.400 274.114,165.970 271.507,163.000 268.549 C 160.030 265.591,157.606 263.043,157.613 262.886 C 157.660 261.866,163.195 256.785,163.870 257.142 C 164.271 257.355,165.680 258.010,167.000 258.599 C 168.320 259.188,170.030 259.981,170.800 260.361 C 171.570 260.741,172.965 261.295,173.900 261.590 C 174.835 261.886,175.600 262.258,175.600 262.417 C 175.600 262.575,176.410 262.909,177.400 263.158 C 178.390 263.408,179.200 263.769,179.200 263.962 C 179.200 264.155,179.689 264.436,180.287 264.586 C 180.885 264.736,182.280 265.284,183.387 265.803 C 184.494 266.323,185.895 266.869,186.500 267.017 C 187.105 267.166,187.600 267.424,187.600 267.591 C 187.600 267.759,188.410 268.123,189.400 268.400 C 190.390 268.677,191.200 269.032,191.200 269.189 C 191.200 269.345,192.280 269.800,193.600 270.200 C 194.920 270.600,196.000 271.055,196.000 271.211 C 196.000 271.368,196.810 271.723,197.800 272.000 C 198.790 272.277,199.600 272.637,199.600 272.800 C 199.600 272.963,200.410 273.323,201.400 273.600 C 202.390 273.877,203.200 274.232,203.200 274.389 C 203.200 274.545,204.280 275.000,205.600 275.400 C 206.920 275.800,208.000 276.271,208.000 276.447 C 208.000 276.624,208.765 276.994,209.700 277.270 C 210.635 277.545,211.631 277.996,211.913 278.270 C 212.195 278.544,213.050 278.886,213.813 279.029 C 214.576 279.172,215.200 279.444,215.200 279.633 C 215.200 279.823,216.190 280.265,217.400 280.617 C 218.610 280.969,219.600 281.410,219.600 281.597 C 219.600 281.784,220.185 282.060,220.900 282.211 C 221.615 282.363,222.740 282.810,223.400 283.205 C 224.060 283.600,225.365 284.149,226.300 284.425 C 227.235 284.701,228.000 285.055,228.000 285.211 C 228.000 285.368,228.810 285.723,229.800 286.000 C 230.790 286.277,231.600 286.637,231.600 286.800 C 231.600 286.963,232.410 287.323,233.400 287.600 C 234.390 287.877,235.200 288.232,235.200 288.389 C 235.200 288.545,236.280 289.000,237.600 289.400 C 238.920 289.800,240.000 290.255,240.000 290.411 C 240.000 290.568,240.810 290.923,241.800 291.200 C 242.790 291.477,243.600 291.841,243.600 292.008 C 243.600 292.175,244.410 292.551,245.400 292.843 C 246.390 293.135,247.200 293.486,247.200 293.622 C 247.200 293.759,248.235 294.214,249.500 294.635 C 250.765 295.056,252.031 295.618,252.313 295.884 C 252.595 296.151,253.450 296.486,254.213 296.629 C 254.976 296.772,255.600 297.035,255.600 297.212 C 255.600 297.390,256.472 297.825,257.538 298.179 C 258.604 298.534,260.172 299.178,261.023 299.612 C 261.873 300.045,262.891 300.400,263.285 300.400 C 263.678 300.400,264.000 300.581,264.000 300.802 C 264.000 301.022,264.810 301.420,265.800 301.684 C 266.790 301.949,267.600 302.299,267.600 302.463 C 267.600 302.626,268.590 303.071,269.800 303.453 C 271.010 303.834,272.000 304.270,272.000 304.421 C 272.000 304.572,272.810 304.923,273.800 305.200 C 274.790 305.477,275.600 305.841,275.600 306.009 C 275.600 306.176,276.082 306.434,276.671 306.582 C 277.260 306.730,278.873 307.380,280.255 308.025 C 281.636 308.671,283.044 309.200,283.383 309.200 C 283.722 309.200,284.000 309.352,284.000 309.537 C 284.000 309.722,284.765 310.102,285.700 310.381 C 286.635 310.660,287.490 311.011,287.600 311.162 C 287.874 311.537,294.879 314.413,295.500 314.406 C 295.775 314.403,296.000 314.580,296.000 314.800 C 296.000 315.020,296.175 315.200,296.390 315.200 C 296.604 315.200,297.980 315.750,299.447 316.421 C 300.913 317.093,302.628 317.746,303.257 317.871 C 303.885 317.997,304.400 318.245,304.400 318.423 C 304.400 318.601,304.805 318.870,305.300 319.021 C 306.135 319.276,308.264 320.205,312.210 322.037 C 313.095 322.448,314.400 322.900,315.110 323.042 C 315.819 323.184,316.400 323.450,316.400 323.634 C 316.400 323.818,317.165 324.191,318.100 324.464 C 319.035 324.738,319.928 325.150,320.085 325.381 C 320.518 326.016,336.483 325.951,336.696 325.313 C 336.785 325.045,337.489 324.707,338.261 324.562 C 339.033 324.417,339.753 324.068,339.861 323.786 C 339.969 323.503,340.492 323.163,341.023 323.030 C 342.164 322.744,394.706 270.314,395.600 268.570 C 395.930 267.927,396.392 267.195,396.626 266.945 C 396.861 266.695,397.279 265.480,397.555 264.245 C 397.831 263.010,398.224 262.000,398.429 262.000 C 399.066 262.000,398.892 250.517,398.239 249.486 C 397.931 248.999,397.547 247.970,397.386 247.200 C 396.817 244.470,394.243 241.410,383.364 230.532 C 377.311 224.478,372.413 219.378,372.479 219.197 C 372.546 219.017,375.525 215.889,379.100 212.246 C 382.675 208.604,385.600 205.348,385.600 205.012 C 385.600 204.675,385.766 204.400,385.969 204.400 C 386.172 204.400,386.544 203.725,386.797 202.900 C 387.049 202.075,387.468 200.967,387.728 200.438 C 389.230 197.378,387.755 181.200,385.973 181.200 C 385.798 181.200,385.527 180.795,385.373 180.300 C 385.070 179.332,209.949 4.000,209.285 4.000 C 209.065 4.000,208.795 3.765,208.685 3.478 C 208.575 3.191,207.746 2.712,206.843 2.414 C 205.939 2.116,205.200 1.736,205.200 1.569 C 205.200 0.509,190.982 -0.044,187.500 0.881 M197.244 31.412 C 197.990 32.188,200.190 34.393,202.133 36.312 C 204.076 38.230,206.416 40.595,207.333 41.566 C 208.250 42.537,209.434 43.707,209.965 44.166 C 210.495 44.625,211.305 45.429,211.765 45.954 C 212.224 46.479,213.395 47.649,214.366 48.554 C 215.337 49.459,216.507 50.634,216.966 51.165 C 217.425 51.695,218.229 52.505,218.754 52.965 C 219.279 53.424,220.449 54.595,221.354 55.566 C 222.259 56.537,223.434 57.707,223.965 58.166 C 224.495 58.625,225.305 59.429,225.765 59.954 C 226.224 60.479,227.395 61.649,228.366 62.554 C 229.337 63.459,230.507 64.634,230.966 65.165 C 231.425 65.695,232.226 66.505,232.747 66.965 C 233.887 67.970,235.881 69.954,237.058 71.253 C 237.529 71.774,240.695 74.949,244.093 78.308 C 247.490 81.667,250.640 84.817,251.093 85.308 C 251.545 85.799,254.695 88.949,258.093 92.308 C 261.490 95.667,264.642 98.817,265.098 99.308 C 265.554 99.799,286.733 120.975,312.163 146.366 C 337.593 171.758,358.400 192.602,358.400 192.687 C 358.400 192.772,347.456 203.778,334.079 217.144 L 309.758 241.446 247.314 179.023 C 212.970 144.690,184.449 116.212,183.935 115.737 C 183.421 115.262,180.275 112.112,176.944 108.737 C 173.613 105.362,170.463 102.216,169.944 101.746 C 169.425 101.277,168.261 100.107,167.357 99.146 C 166.454 98.186,165.284 97.009,164.757 96.532 C 164.231 96.055,161.072 92.905,157.738 89.532 C 154.405 86.159,151.255 83.014,150.738 82.542 C 148.640 80.624,147.130 78.809,147.275 78.376 C 147.462 77.815,195.248 30.000,195.622 30.000 C 195.768 30.000,196.498 30.635,197.244 31.412 M127.154 272.864 C 135.979 281.698,143.200 289.034,143.200 289.164 C 143.200 289.295,125.134 307.467,103.052 329.548 L 62.905 369.694 46.852 353.642 C 38.024 344.814,30.800 337.500,30.800 337.388 C 30.800 337.243,110.652 257.093,111.054 256.835 C 111.084 256.816,118.329 264.029,127.154 272.864 " stroke="none" fill="#ffffff" fill-rule="evenodd"></path><path id="path4" d="M187.500 0.881 C 186.675 1.100,186.000 1.442,186.000 1.640 C 186.000 1.838,185.758 2.000,185.461 2.000 C 183.782 2.000,179.458 6.091,151.454 34.171 C 116.634 69.086,119.749 65.867,119.389 67.303 C 119.237 67.906,118.960 68.400,118.772 68.400 C 117.927 68.400,117.424 72.103,117.412 78.400 C 117.401 84.679,117.954 88.800,118.809 88.800 C 118.976 88.800,119.215 89.205,119.340 89.700 C 119.465 90.195,119.889 91.034,120.283 91.564 C 121.295 92.924,295.233 266.826,296.557 267.800 C 298.844 269.484,300.950 270.377,303.241 270.636 C 304.548 270.784,305.714 271.062,305.833 271.253 C 306.112 271.704,314.000 271.708,314.000 271.256 C 314.000 271.067,315.015 270.807,316.256 270.679 C 320.907 270.199,322.130 269.229,337.802 253.587 L 352.157 239.259 360.501 247.617 L 368.845 255.974 348.436 276.387 C 337.211 287.614,327.817 296.800,327.560 296.800 C 326.726 296.800,324.000 295.881,324.000 295.600 C 324.000 295.450,322.920 295.000,321.600 294.600 C 320.280 294.200,319.200 293.745,319.200 293.589 C 319.200 293.432,318.390 293.077,317.400 292.800 C 316.410 292.523,315.600 292.163,315.600 292.000 C 315.600 291.837,314.790 291.477,313.800 291.200 C 312.810 290.923,312.000 290.559,312.000 290.391 C 312.000 290.224,310.920 289.763,309.600 289.368 C 308.280 288.972,307.200 288.505,307.200 288.330 C 307.200 288.155,306.390 287.808,305.400 287.558 C 304.410 287.309,303.600 286.951,303.600 286.764 C 303.600 286.576,302.610 286.135,301.400 285.783 C 300.190 285.431,299.200 284.997,299.200 284.819 C 299.200 284.641,298.390 284.291,297.400 284.042 C 296.410 283.792,295.600 283.440,295.600 283.258 C 295.600 283.076,294.848 282.701,293.929 282.426 C 293.010 282.151,291.885 281.687,291.429 281.395 C 290.973 281.104,289.835 280.664,288.900 280.417 C 287.965 280.171,287.200 279.819,287.200 279.637 C 287.200 279.454,286.390 279.077,285.400 278.800 C 284.410 278.523,283.600 278.159,283.600 277.991 C 283.600 277.824,283.111 277.564,282.513 277.414 C 281.915 277.264,280.520 276.716,279.413 276.197 C 278.306 275.677,276.905 275.131,276.300 274.983 C 275.695 274.834,275.200 274.573,275.200 274.401 C 275.200 274.229,274.390 273.849,273.400 273.557 C 272.410 273.265,271.600 272.909,271.600 272.767 C 271.600 272.626,270.567 272.185,269.304 271.787 C 268.041 271.390,266.775 270.833,266.491 270.548 C 266.207 270.264,265.350 269.914,264.587 269.771 C 263.824 269.628,263.200 269.371,263.200 269.200 C 263.200 269.028,262.390 268.649,261.400 268.357 C 260.410 268.065,259.600 267.714,259.600 267.578 C 259.600 267.441,258.565 266.986,257.300 266.565 C 256.035 266.144,254.769 265.582,254.487 265.316 C 254.205 265.049,253.350 264.714,252.587 264.571 C 251.824 264.428,251.200 264.150,251.200 263.954 C 251.200 263.758,250.390 263.380,249.400 263.116 C 248.410 262.851,247.600 262.501,247.600 262.337 C 247.600 262.174,246.610 261.729,245.400 261.347 C 244.190 260.966,243.200 260.526,243.200 260.370 C 243.200 260.214,242.711 259.964,242.113 259.814 C 241.515 259.664,239.548 258.845,237.742 257.995 C 235.935 257.145,233.725 256.230,232.829 255.961 C 231.933 255.693,231.200 255.342,231.200 255.181 C 231.200 255.020,230.390 254.649,229.400 254.357 C 228.410 254.065,227.600 253.715,227.600 253.580 C 227.600 253.444,226.520 252.989,225.200 252.567 C 223.880 252.145,222.800 251.665,222.800 251.500 C 222.800 251.335,222.625 251.200,222.412 251.200 C 222.198 251.200,221.028 250.750,219.812 250.200 C 218.595 249.650,216.583 248.740,215.340 248.178 C 214.097 247.616,212.567 247.053,211.940 246.928 C 211.313 246.803,210.800 246.555,210.800 246.377 C 210.800 246.199,210.395 245.930,209.900 245.779 C 209.063 245.524,208.148 245.130,203.071 242.839 C 202.009 242.360,200.614 241.863,199.971 241.734 C 199.327 241.605,198.800 241.355,198.800 241.177 C 198.800 240.999,198.395 240.730,197.900 240.579 C 197.100 240.335,195.167 239.514,191.400 237.817 C 188.335 236.437,186.373 235.575,183.600 234.389 C 180.078 232.883,176.872 231.470,171.722 229.154 C 170.799 228.740,169.949 228.400,169.834 228.400 C 169.718 228.400,168.583 227.917,167.312 227.327 C 163.593 225.601,155.088 225.584,152.941 227.299 C 152.596 227.575,149.004 231.085,144.958 235.100 C 140.912 239.115,137.435 242.400,137.232 242.400 C 137.028 242.400,134.373 239.969,131.331 236.997 C 122.468 228.340,120.898 227.608,111.173 227.602 C 104.365 227.599,100.737 228.526,97.237 231.164 C 94.844 232.967,5.025 323.006,4.400 324.227 C 4.070 324.872,3.588 325.625,3.329 325.900 C 3.070 326.175,2.636 327.390,2.365 328.600 C 2.094 329.810,1.721 330.800,1.536 330.800 C 1.073 330.800,1.109 343.497,1.573 343.783 C 1.778 343.910,2.167 345.003,2.438 346.212 C 2.708 347.420,3.170 348.609,3.465 348.854 C 3.759 349.098,4.000 349.544,4.000 349.846 C 4.000 350.147,4.360 350.618,4.800 350.893 C 5.240 351.168,5.600 351.596,5.600 351.844 C 5.600 352.499,47.994 394.800,48.649 394.800 C 48.952 394.800,49.200 394.963,49.200 395.162 C 49.200 395.762,52.532 397.522,54.632 398.032 C 55.715 398.294,56.771 398.664,56.980 398.854 C 57.495 399.323,68.234 399.296,69.105 398.823 C 69.487 398.616,70.835 398.142,72.100 397.769 C 73.365 397.396,74.400 396.955,74.400 396.789 C 74.400 396.623,74.816 396.382,75.324 396.255 C 76.700 395.909,75.150 397.423,122.490 350.178 C 167.415 305.342,169.694 302.997,170.448 300.834 C 170.685 300.155,171.023 299.600,171.199 299.600 C 171.376 299.600,171.760 298.655,172.053 297.500 C 173.135 293.234,172.508 278.800,171.240 278.800 C 171.087 278.800,170.718 278.125,170.421 277.300 C 170.123 276.475,169.547 275.565,169.140 275.277 C 168.733 274.990,168.400 274.569,168.400 274.341 C 168.400 274.114,165.970 271.507,163.000 268.549 C 160.030 265.591,157.606 263.043,157.613 262.886 C 157.660 261.866,163.195 256.785,163.870 257.142 C 164.271 257.355,165.680 258.010,167.000 258.599 C 168.320 259.188,170.030 259.981,170.800 260.361 C 171.570 260.741,172.965 261.295,173.900 261.590 C 174.835 261.886,175.600 262.258,175.600 262.417 C 175.600 262.575,176.410 262.909,177.400 263.158 C 178.390 263.408,179.200 263.769,179.200 263.962 C 179.200 264.155,179.689 264.436,180.287 264.586 C 180.885 264.736,182.280 265.284,183.387 265.803 C 184.494 266.323,185.895 266.869,186.500 267.017 C 187.105 267.166,187.600 267.424,187.600 267.591 C 187.600 267.759,188.410 268.123,189.400 268.400 C 190.390 268.677,191.200 269.032,191.200 269.189 C 191.200 269.345,192.280 269.800,193.600 270.200 C 194.920 270.600,196.000 271.055,196.000 271.211 C 196.000 271.368,196.810 271.723,197.800 272.000 C 198.790 272.277,199.600 272.637,199.600 272.800 C 199.600 272.963,200.410 273.323,201.400 273.600 C 202.390 273.877,203.200 274.232,203.200 274.389 C 203.200 274.545,204.280 275.000,205.600 275.400 C 206.920 275.800,208.000 276.271,208.000 276.447 C 208.000 276.624,208.765 276.994,209.700 277.270 C 210.635 277.545,211.631 277.996,211.913 278.270 C 212.195 278.544,213.050 278.886,213.813 279.029 C 214.576 279.172,215.200 279.444,215.200 279.633 C 215.200 279.823,216.190 280.265,217.400 280.617 C 218.610 280.969,219.600 281.410,219.600 281.597 C 219.600 281.784,220.185 282.060,220.900 282.211 C 221.615 282.363,222.740 282.810,223.400 283.205 C 224.060 283.600,225.365 284.149,226.300 284.425 C 227.235 284.701,228.000 285.055,228.000 285.211 C 228.000 285.368,228.810 285.723,229.800 286.000 C 230.790 286.277,231.600 286.637,231.600 286.800 C 231.600 286.963,232.410 287.323,233.400 287.600 C 234.390 287.877,235.200 288.232,235.200 288.389 C 235.200 288.545,236.280 289.000,237.600 289.400 C 238.920 289.800,240.000 290.255,240.000 290.411 C 240.000 290.568,240.810 290.923,241.800 291.200 C 242.790 291.477,243.600 291.841,243.600 292.008 C 243.600 292.175,244.410 292.551,245.400 292.843 C 246.390 293.135,247.200 293.486,247.200 293.622 C 247.200 293.759,248.235 294.214,249.500 294.635 C 250.765 295.056,252.031 295.618,252.313 295.884 C 252.595 296.151,253.450 296.486,254.213 296.629 C 254.976 296.772,255.600 297.035,255.600 297.212 C 255.600 297.390,256.472 297.825,257.538 298.179 C 258.604 298.534,260.172 299.178,261.023 299.612 C 261.873 300.045,262.891 300.400,263.285 300.400 C 263.678 300.400,264.000 300.581,264.000 300.802 C 264.000 301.022,264.810 301.420,265.800 301.684 C 266.790 301.949,267.600 302.299,267.600 302.463 C 267.600 302.626,268.590 303.071,269.800 303.453 C 271.010 303.834,272.000 304.270,272.000 304.421 C 272.000 304.572,272.810 304.923,273.800 305.200 C 274.790 305.477,275.600 305.841,275.600 306.009 C 275.600 306.176,276.082 306.434,276.671 306.582 C 277.260 306.730,278.873 307.380,280.255 308.025 C 281.636 308.671,283.044 309.200,283.383 309.200 C 283.722 309.200,284.000 309.352,284.000 309.537 C 284.000 309.722,284.765 310.102,285.700 310.381 C 286.635 310.660,287.490 311.011,287.600 311.162 C 287.874 311.537,294.879 314.413,295.500 314.406 C 295.775 314.403,296.000 314.580,296.000 314.800 C 296.000 315.020,296.175 315.200,296.390 315.200 C 296.604 315.200,297.980 315.750,299.447 316.421 C 300.913 317.093,302.628 317.746,303.257 317.871 C 303.885 317.997,304.400 318.245,304.400 318.423 C 304.400 318.601,304.805 318.870,305.300 319.021 C 306.135 319.276,308.264 320.205,312.210 322.037 C 313.095 322.448,314.400 322.900,315.110 323.042 C 315.819 323.184,316.400 323.450,316.400 323.634 C 316.400 323.818,317.165 324.191,318.100 324.464 C 319.035 324.738,319.928 325.150,320.085 325.381 C 320.518 326.016,336.483 325.951,336.696 325.313 C 336.785 325.045,337.489 324.707,338.261 324.562 C 339.033 324.417,339.753 324.068,339.861 323.786 C 339.969 323.503,340.492 323.163,341.023 323.030 C 342.164 322.744,394.706 270.314,395.600 268.570 C 395.930 267.927,396.392 267.195,396.626 266.945 C 396.861 266.695,397.279 265.480,397.555 264.245 C 397.831 263.010,398.224 262.000,398.429 262.000 C 399.066 262.000,398.892 250.517,398.239 249.486 C 397.931 248.999,397.547 247.970,397.386 247.200 C 396.817 244.470,394.243 241.410,383.364 230.532 C 377.311 224.478,372.413 219.378,372.479 219.197 C 372.546 219.017,375.525 215.889,379.100 212.246 C 382.675 208.604,385.600 205.348,385.600 205.012 C 385.600 204.675,385.766 204.400,385.969 204.400 C 386.172 204.400,386.544 203.725,386.797 202.900 C 387.049 202.075,387.468 200.967,387.728 200.438 C 389.230 197.378,387.755 181.200,385.973 181.200 C 385.798 181.200,385.527 180.795,385.373 180.300 C 385.070 179.332,209.949 4.000,209.285 4.000 C 209.065 4.000,208.795 3.765,208.685 3.478 C 208.575 3.191,207.746 2.712,206.843 2.414 C 205.939 2.116,205.200 1.736,205.200 1.569 C 205.200 0.509,190.982 -0.044,187.500 0.881 M197.244 31.412 C 197.990 32.188,200.190 34.393,202.133 36.312 C 204.076 38.230,206.416 40.595,207.333 41.566 C 208.250 42.537,209.434 43.707,209.965 44.166 C 210.495 44.625,211.305 45.429,211.765 45.954 C 212.224 46.479,213.395 47.649,214.366 48.554 C 215.337 49.459,216.507 50.634,216.966 51.165 C 217.425 51.695,218.229 52.505,218.754 52.965 C 219.279 53.424,220.449 54.595,221.354 55.566 C 222.259 56.537,223.434 57.707,223.965 58.166 C 224.495 58.625,225.305 59.429,225.765 59.954 C 226.224 60.479,227.395 61.649,228.366 62.554 C 229.337 63.459,230.507 64.634,230.966 65.165 C 231.425 65.695,232.226 66.505,232.747 66.965 C 233.887 67.970,235.881 69.954,237.058 71.253 C 237.529 71.774,240.695 74.949,244.093 78.308 C 247.490 81.667,250.640 84.817,251.093 85.308 C 251.545 85.799,254.695 88.949,258.093 92.308 C 261.490 95.667,264.642 98.817,265.098 99.308 C 265.554 99.799,286.733 120.975,312.163 146.366 C 337.593 171.758,358.400 192.602,358.400 192.687 C 358.400 192.772,347.456 203.778,334.079 217.144 L 309.758 241.446 247.314 179.023 C 212.970 144.690,184.449 116.212,183.935 115.737 C 183.421 115.262,180.275 112.112,176.944 108.737 C 173.613 105.362,170.463 102.216,169.944 101.746 C 169.425 101.277,168.261 100.107,167.357 99.146 C 166.454 98.186,165.284 97.009,164.757 96.532 C 164.231 96.055,161.072 92.905,157.738 89.532 C 154.405 86.159,151.255 83.014,150.738 82.542 C 148.640 80.624,147.130 78.809,147.275 78.376 C 147.462 77.815,195.248 30.000,195.622 30.000 C 195.768 30.000,196.498 30.635,197.244 31.412 M127.154 272.864 C 135.979 281.698,143.200 289.034,143.200 289.164 C 143.200 289.295,125.134 307.467,103.052 329.548 L 62.905 369.694 46.852 353.642 C 38.024 344.814,30.800 337.500,30.800 337.388 C 30.800 337.243,110.652 257.093,111.054 256.835 C 111.084 256.816,118.329 264.029,127.154 272.864 " stroke="none" fill="#ffffff" fill-rule="evenodd"></path></g></svg>