<svg id="svg" version="1.1" width="400" height="400" xmlns="http://www.w3.org/2000/svg" xmlns:xlink="http://www.w3.org/1999/xlink" style="display: block;"><g id="svgg"><path id="path0" d="" stroke="none" fill="#808000" fill-rule="evenodd"></path><path id="path1" d="" stroke="none" fill="#ff0000" fill-rule="evenodd"></path><path id="path2" d="" stroke="none" fill="#aaaa00" fill-rule="evenodd"></path><path id="path3" d="M364.243 21.033 C 364.109 21.381,364.000 22.101,364.000 22.633 C 364.000 23.570,363.906 23.600,361.000 23.600 L 358.000 23.600 358.000 25.000 C 358.000 25.956,357.810 26.416,357.400 26.450 C 357.070 26.477,356.620 26.545,356.400 26.600 C 356.180 26.655,355.730 26.723,355.400 26.750 C 354.990 26.784,354.800 27.244,354.800 28.200 C 354.800 29.651,354.880 29.599,352.400 29.761 C 352.006 29.787,351.758 30.308,351.677 31.277 C 351.562 32.665,351.465 32.762,350.077 32.877 C 348.689 32.993,348.593 33.089,348.477 34.477 C 348.362 35.865,348.265 35.962,346.877 36.077 C 345.485 36.193,345.393 36.286,345.276 37.700 C 345.158 39.119,345.077 39.200,343.776 39.200 C 342.437 39.200,342.400 39.243,342.400 40.800 L 342.400 42.400 340.800 42.400 C 339.238 42.400,339.200 42.433,339.200 43.800 L 339.200 45.200 336.774 45.200 C 333.718 45.200,332.800 45.665,332.800 47.214 C 332.800 48.352,332.055 48.721,330.304 48.449 C 330.142 48.424,329.894 49.122,329.753 50.001 C 329.514 51.498,329.412 51.600,328.154 51.600 C 326.898 51.600,326.793 51.704,326.557 53.178 C 326.331 54.589,326.172 54.769,325.052 54.878 C 323.920 54.988,323.788 55.144,323.676 56.500 C 323.555 57.958,323.508 58.000,321.976 58.000 C 320.453 58.000,320.400 58.045,320.400 59.349 C 320.400 60.613,320.300 60.714,318.800 60.954 C 317.288 61.195,317.200 61.286,317.200 62.605 L 317.200 64.000 314.205 64.000 L 311.209 64.000 310.954 65.600 C 310.714 67.100,310.613 67.200,309.349 67.200 C 308.042 67.200,308.000 67.250,308.000 68.800 L 308.000 70.400 306.400 70.400 L 304.800 70.400 304.800 72.000 L 304.800 73.600 303.200 73.600 C 301.650 73.600,301.600 73.642,301.600 74.949 C 301.600 76.213,301.500 76.314,300.000 76.554 C 298.488 76.795,298.400 76.886,298.400 78.205 C 298.400 79.466,298.293 79.600,297.280 79.600 C 295.859 79.600,295.200 80.259,295.200 81.680 L 295.200 82.800 292.200 82.800 L 289.200 82.800 289.200 84.376 C 289.200 85.908,289.158 85.955,287.700 86.076 C 286.281 86.193,286.193 86.281,286.076 87.700 C 285.955 89.158,285.908 89.200,284.376 89.200 C 282.808 89.200,282.800 89.208,282.800 90.776 C 282.800 92.308,282.758 92.355,281.300 92.476 C 279.931 92.589,279.789 92.713,279.675 93.900 C 279.565 95.039,279.406 95.200,278.389 95.200 C 277.102 95.200,276.195 96.374,276.521 97.619 C 276.679 98.222,276.448 98.379,275.257 98.478 C 273.888 98.593,273.793 98.690,273.676 100.100 C 273.555 101.558,273.508 101.600,271.976 101.600 C 270.407 101.600,270.400 101.607,270.400 103.183 L 270.400 104.766 267.300 104.883 L 264.200 105.000 264.076 106.500 C 263.958 107.919,263.877 108.000,262.576 108.000 C 261.642 108.000,261.184 108.193,261.150 108.600 C 261.123 108.930,261.078 109.605,261.050 110.100 C 261.015 110.735,260.735 111.015,260.100 111.050 C 259.605 111.078,258.930 111.123,258.600 111.150 C 258.193 111.184,258.000 111.642,258.000 112.576 C 258.000 113.877,257.919 113.958,256.500 114.076 C 255.086 114.193,254.993 114.285,254.877 115.677 C 254.762 117.065,254.665 117.162,253.277 117.277 C 251.885 117.393,251.793 117.486,251.676 118.900 C 251.559 120.308,251.470 120.400,250.219 120.400 C 248.811 120.400,248.400 120.904,248.400 122.633 C 248.400 123.570,248.306 123.600,245.400 123.600 L 242.400 123.600 242.400 125.000 C 242.400 125.956,242.210 126.416,241.800 126.450 C 241.470 126.478,241.020 126.545,240.800 126.600 C 240.580 126.655,240.130 126.722,239.800 126.750 C 239.393 126.784,239.200 127.242,239.200 128.176 C 239.200 129.477,239.119 129.558,237.700 129.676 C 236.286 129.793,236.193 129.885,236.077 131.277 C 235.962 132.665,235.865 132.762,234.477 132.877 C 233.089 132.993,232.993 133.089,232.877 134.477 C 232.762 135.865,232.665 135.962,231.277 136.077 C 229.885 136.193,229.793 136.286,229.676 137.700 C 229.558 139.119,229.477 139.200,228.176 139.200 C 227.242 139.200,226.784 139.393,226.750 139.800 C 226.722 140.130,226.655 140.580,226.600 140.800 C 226.545 141.020,226.478 141.470,226.450 141.800 C 226.416 142.210,225.956 142.400,225.000 142.400 C 223.667 142.400,223.600 142.467,223.600 143.800 L 223.600 145.200 221.200 145.260 C 217.885 145.343,217.837 145.350,217.506 145.800 C 217.344 146.020,217.209 146.695,217.206 147.300 C 217.201 148.192,217.010 148.409,216.200 148.450 C 215.650 148.478,214.975 148.523,214.700 148.550 C 214.423 148.578,214.145 149.269,214.076 150.100 C 213.959 151.517,213.876 151.600,212.581 151.600 C 211.290 151.600,211.194 151.694,210.954 153.200 C 210.714 154.700,210.613 154.800,209.349 154.800 C 208.042 154.800,208.000 154.850,208.000 156.400 L 208.000 158.000 206.400 158.000 C 204.850 158.000,204.800 158.042,204.800 159.349 C 204.800 160.613,204.700 160.714,203.200 160.954 C 201.688 161.195,201.600 161.286,201.600 162.605 L 201.600 164.000 198.643 164.000 C 195.486 164.000,195.200 164.185,195.200 166.233 C 195.200 167.072,195.014 167.200,193.800 167.200 C 192.437 167.200,192.400 167.242,192.400 168.776 C 192.400 170.308,192.358 170.355,190.900 170.476 C 189.481 170.593,189.393 170.681,189.276 172.100 C 189.155 173.558,189.108 173.600,187.576 173.600 C 186.053 173.600,186.000 173.645,186.000 174.949 C 186.000 176.213,185.900 176.314,184.400 176.554 C 182.888 176.795,182.800 176.886,182.800 178.205 C 182.800 179.466,182.693 179.600,181.680 179.600 C 181.064 179.600,180.344 179.816,180.080 180.080 C 179.816 180.344,179.600 181.064,179.600 181.680 C 179.600 182.693,179.466 182.800,178.205 182.800 C 176.886 182.800,176.795 182.888,176.554 184.400 L 176.298 186.000 173.349 186.000 L 170.400 186.000 170.400 187.600 L 170.400 189.200 168.800 189.200 C 167.204 189.200,167.200 189.204,167.200 190.776 C 167.200 192.308,167.158 192.355,165.700 192.476 C 164.331 192.589,164.189 192.713,164.075 193.900 C 163.965 195.039,163.806 195.200,162.789 195.200 C 161.502 195.200,160.595 196.374,160.921 197.619 C 161.079 198.222,160.848 198.379,159.657 198.478 C 158.288 198.593,158.193 198.690,158.076 200.100 C 157.955 201.558,157.908 201.600,156.376 201.600 C 154.807 201.600,154.800 201.607,154.800 203.183 L 154.800 204.766 151.700 204.883 L 148.600 205.000 148.477 206.477 C 148.362 207.865,148.265 207.962,146.877 208.077 C 145.533 208.189,145.389 208.317,145.275 209.500 C 145.072 211.599,142.000 211.505,142.000 209.400 C 142.000 208.067,141.933 208.000,140.600 208.000 C 139.644 208.000,139.184 207.810,139.150 207.400 C 139.123 207.070,139.055 206.620,139.000 206.400 C 138.945 206.180,138.878 205.730,138.850 205.400 C 138.816 204.990,138.356 204.800,137.400 204.800 C 136.186 204.800,136.000 204.672,136.000 203.833 C 136.000 201.785,135.714 201.600,132.557 201.600 L 129.600 201.600 129.600 200.243 C 129.600 198.814,129.103 198.400,127.391 198.400 C 126.590 198.400,126.430 198.174,126.324 196.900 C 126.210 195.521,126.087 195.384,124.796 195.200 C 123.828 195.062,123.378 194.783,123.346 194.300 C 123.321 193.915,123.278 193.330,123.250 193.000 C 123.210 192.524,122.578 192.400,120.200 192.400 L 117.200 192.400 117.200 190.800 C 117.200 189.204,117.196 189.200,115.624 189.200 C 114.092 189.200,114.045 189.158,113.924 187.700 C 113.807 186.281,113.719 186.193,112.300 186.076 C 110.842 185.955,110.800 185.908,110.800 184.376 C 110.800 182.808,110.792 182.800,109.224 182.800 C 107.692 182.800,107.645 182.758,107.524 181.300 L 107.400 179.800 104.500 179.682 L 101.600 179.565 101.600 178.187 C 101.600 176.889,101.507 176.795,100.000 176.554 C 98.500 176.314,98.400 176.213,98.400 174.949 C 98.400 173.642,98.350 173.600,96.800 173.600 L 95.200 173.600 95.200 172.000 L 95.200 170.400 92.251 170.400 L 89.302 170.400 89.046 168.800 C 88.805 167.288,88.714 167.200,87.395 167.200 C 86.187 167.200,85.993 167.066,85.950 166.200 C 85.840 163.995,86.005 164.160,83.800 164.050 C 82.940 164.007,82.800 163.810,82.800 162.647 C 82.800 161.059,82.254 160.814,78.700 160.805 L 76.400 160.800 76.400 159.400 C 76.400 158.067,76.333 158.000,75.000 158.000 C 74.044 158.000,73.584 157.810,73.550 157.400 C 73.523 157.070,73.455 156.620,73.400 156.400 C 73.345 156.180,73.278 155.730,73.250 155.400 C 73.216 154.990,72.756 154.800,71.800 154.800 C 70.349 154.800,70.401 154.880,70.239 152.400 C 70.209 151.933,69.515 151.774,67.100 151.683 L 64.000 151.566 64.000 150.226 C 64.000 148.815,63.497 148.400,61.791 148.400 C 60.990 148.400,60.830 148.174,60.724 146.900 C 60.607 145.481,60.519 145.393,59.100 145.276 C 57.681 145.158,57.600 145.077,57.600 143.776 L 57.600 142.400 54.624 142.400 L 51.648 142.400 51.524 140.900 C 51.407 139.486,51.315 139.393,49.923 139.277 C 48.535 139.162,48.438 139.065,48.323 137.677 C 48.207 136.289,48.111 136.193,46.723 136.077 C 45.335 135.962,45.238 135.865,45.123 134.477 L 45.000 133.000 40.500 132.887 C 35.680 132.766,35.733 132.794,36.034 130.545 C 36.137 129.778,34.183 129.596,26.327 129.637 C 16.984 129.687,17.200 129.635,17.200 131.833 C 17.200 132.770,17.106 132.800,14.205 132.800 L 11.209 132.800 10.954 134.400 L 10.698 136.000 7.749 136.000 L 4.800 136.000 4.800 137.600 L 4.800 139.200 3.200 139.200 L 1.600 139.200 1.600 142.200 C 1.600 144.933,1.529 145.200,0.800 145.200 C 0.014 145.200,0.000 145.467,0.000 160.800 C 0.000 176.133,0.014 176.400,0.800 176.400 C 1.467 176.400,1.600 176.667,1.600 178.000 C 1.600 179.596,1.604 179.600,3.176 179.600 C 4.708 179.600,4.755 179.642,4.876 181.100 C 4.993 182.519,5.081 182.607,6.500 182.724 L 8.000 182.848 8.000 185.824 C 8.000 188.180,8.125 188.810,8.600 188.850 C 8.930 188.878,9.605 188.923,10.100 188.950 C 10.735 188.985,11.015 189.265,11.050 189.900 C 11.078 190.395,11.123 191.070,11.150 191.400 C 11.184 191.807,11.642 192.000,12.576 192.000 C 13.877 192.000,13.958 192.081,14.076 193.500 C 14.193 194.914,14.285 195.007,15.677 195.123 C 17.065 195.238,17.162 195.335,17.277 196.723 C 17.393 198.115,17.486 198.207,18.900 198.324 C 20.308 198.441,20.400 198.530,20.400 199.781 C 20.400 201.189,20.904 201.600,22.633 201.600 C 23.570 201.600,23.600 201.694,23.600 204.600 L 23.600 207.600 25.000 207.600 C 25.956 207.600,26.416 207.790,26.450 208.200 C 26.477 208.530,26.545 208.980,26.600 209.200 C 26.655 209.420,26.723 209.870,26.750 210.200 C 26.784 210.607,27.242 210.800,28.176 210.800 C 29.477 210.800,29.558 210.881,29.676 212.300 C 29.793 213.714,29.885 213.807,31.277 213.923 C 32.665 214.038,32.762 214.135,32.877 215.523 C 32.993 216.915,33.086 217.007,34.500 217.124 L 36.000 217.248 36.000 220.219 L 36.000 223.191 37.600 223.446 C 39.100 223.686,39.200 223.787,39.200 225.051 C 39.200 226.358,39.250 226.400,40.800 226.400 L 42.400 226.400 42.400 228.000 C 42.400 229.562,42.433 229.600,43.800 229.600 C 44.913 229.600,45.212 229.764,45.260 230.400 C 45.293 230.840,45.338 231.425,45.360 231.700 C 45.418 232.429,46.052 232.787,47.300 232.794 L 48.400 232.800 48.400 235.795 L 48.400 238.791 49.978 239.043 C 51.389 239.269,51.569 239.428,51.678 240.548 C 51.788 241.680,51.944 241.812,53.300 241.924 C 54.758 242.045,54.800 242.092,54.800 243.624 C 54.800 245.192,54.808 245.200,56.376 245.200 C 57.908 245.200,57.955 245.242,58.076 246.700 C 58.189 248.069,58.313 248.211,59.500 248.325 C 60.826 248.453,61.131 249.411,60.824 252.484 C 60.695 253.770,61.569 254.800,62.789 254.800 C 63.806 254.800,63.965 254.961,64.075 256.100 C 64.189 257.287,64.331 257.411,65.700 257.524 C 67.158 257.645,67.200 257.692,67.200 259.224 C 67.200 260.796,67.204 260.800,68.800 260.800 L 70.400 260.800 70.400 262.400 C 70.400 263.997,70.403 264.000,71.983 264.000 L 73.566 264.000 73.683 267.100 L 73.800 270.200 75.200 270.400 C 76.403 270.572,76.612 270.762,76.687 271.753 C 76.794 273.175,76.825 273.206,78.247 273.313 C 79.238 273.388,79.428 273.597,79.600 274.800 C 79.783 276.082,79.924 276.210,81.277 276.323 C 82.665 276.438,82.762 276.535,82.877 277.923 C 82.993 279.315,83.086 279.407,84.500 279.524 L 86.000 279.648 86.000 282.581 C 86.000 285.712,86.188 286.000,88.233 286.000 C 89.072 286.000,89.200 286.186,89.200 287.400 C 89.200 288.356,89.390 288.816,89.800 288.850 C 90.130 288.877,90.580 288.945,90.800 289.000 C 91.020 289.055,91.470 289.123,91.800 289.150 C 92.210 289.184,92.400 289.644,92.400 290.600 C 92.400 291.929,92.470 292.000,93.776 292.000 C 95.077 292.000,95.158 292.081,95.276 293.500 C 95.393 294.915,95.484 295.007,96.884 295.123 L 98.367 295.246 98.484 298.323 L 98.600 301.400 100.077 301.523 C 101.465 301.638,101.562 301.735,101.677 303.123 C 101.758 304.092,102.006 304.613,102.400 304.639 C 104.880 304.801,104.800 304.749,104.800 306.200 C 104.800 307.567,104.838 307.600,106.400 307.600 L 108.000 307.600 108.000 309.200 C 108.000 310.762,108.033 310.800,109.400 310.800 L 110.800 310.800 110.805 313.100 C 110.814 316.654,111.059 317.200,112.647 317.200 C 113.975 317.200,114.213 317.608,113.966 319.455 C 113.904 319.915,114.978 320.388,116.100 320.394 C 117.089 320.399,117.200 320.541,117.200 321.795 C 117.200 323.111,117.290 323.205,118.778 323.443 C 120.189 323.669,120.369 323.828,120.478 324.948 C 120.588 326.076,120.746 326.212,122.077 326.323 C 123.465 326.438,123.562 326.535,123.677 327.923 L 123.800 329.400 126.700 329.518 C 129.247 329.621,129.607 329.730,129.660 330.418 C 129.693 330.848,129.738 331.425,129.760 331.700 C 129.830 332.572,130.529 332.788,133.300 332.794 L 136.000 332.800 136.000 334.157 C 136.000 336.040,135.699 336.000,150.000 336.000 C 164.301 336.000,164.000 336.040,164.000 334.157 L 164.000 332.800 166.700 332.794 C 169.471 332.788,170.170 332.572,170.240 331.700 C 170.262 331.425,170.307 330.848,170.340 330.418 C 170.393 329.730,170.753 329.621,173.300 329.518 L 176.200 329.400 176.323 327.923 C 176.438 326.535,176.535 326.438,177.923 326.323 C 179.254 326.212,179.412 326.076,179.522 324.948 C 179.631 323.828,179.811 323.669,181.222 323.443 C 182.710 323.205,182.800 323.111,182.800 321.795 C 182.800 320.541,182.911 320.399,183.900 320.394 C 185.022 320.388,186.096 319.915,186.034 319.455 C 186.015 319.315,186.000 318.030,186.000 316.600 L 186.000 314.000 187.395 314.000 C 188.714 314.000,188.805 313.912,189.046 312.400 C 189.286 310.900,189.387 310.800,190.651 310.800 C 191.958 310.800,192.000 310.750,192.000 309.200 L 192.000 307.600 193.600 307.600 C 195.162 307.600,195.200 307.567,195.200 306.200 C 195.200 304.749,195.120 304.801,197.600 304.639 C 197.994 304.613,198.242 304.092,198.323 303.123 C 198.438 301.735,198.535 301.638,199.923 301.523 L 201.400 301.400 201.516 298.323 L 201.633 295.246 203.116 295.123 C 204.516 295.007,204.607 294.915,204.724 293.500 C 204.842 292.081,204.923 292.000,206.224 292.000 C 207.530 292.000,207.600 291.929,207.600 290.600 C 207.600 289.644,207.790 289.184,208.200 289.150 C 208.530 289.123,208.980 289.055,209.200 289.000 C 209.420 288.945,209.870 288.877,210.200 288.850 C 210.610 288.816,210.800 288.356,210.800 287.400 C 210.800 286.186,210.928 286.000,211.767 286.000 C 213.496 286.000,214.000 285.589,214.000 284.181 C 214.000 282.930,214.092 282.841,215.500 282.724 L 217.000 282.600 217.116 279.523 L 217.233 276.446 218.716 276.323 C 220.076 276.210,220.217 276.083,220.400 274.800 C 220.572 273.597,220.762 273.388,221.753 273.313 C 223.175 273.206,223.206 273.175,223.313 271.753 C 223.388 270.762,223.597 270.572,224.800 270.400 C 226.082 270.217,226.210 270.076,226.323 268.723 C 226.438 267.335,226.535 267.238,227.923 267.123 C 229.311 267.007,229.407 266.911,229.523 265.523 C 229.638 264.135,229.735 264.038,231.123 263.923 L 232.600 263.800 232.716 260.723 L 232.833 257.646 234.316 257.523 C 235.668 257.411,235.811 257.284,235.925 256.100 C 236.035 254.961,236.194 254.800,237.211 254.800 C 238.498 254.800,239.405 253.626,239.079 252.381 C 238.921 251.778,239.152 251.621,240.343 251.522 C 241.712 251.407,241.807 251.310,241.924 249.900 C 242.045 248.442,242.092 248.400,243.624 248.400 C 245.196 248.400,245.200 248.396,245.200 246.800 L 245.200 245.200 246.800 245.200 L 248.400 245.200 248.400 242.251 L 248.400 239.302 250.000 239.046 C 251.512 238.805,251.600 238.714,251.600 237.395 C 251.600 236.076,251.674 236.000,252.957 236.000 C 254.391 236.000,254.800 235.504,254.800 233.767 C 254.800 232.928,254.986 232.800,256.200 232.800 C 257.563 232.800,257.600 232.758,257.600 231.224 C 257.600 229.692,257.642 229.645,259.100 229.524 C 260.519 229.407,260.607 229.319,260.724 227.900 C 260.845 226.442,260.892 226.400,262.424 226.400 L 264.000 226.400 264.000 223.400 C 264.000 220.635,264.065 220.400,264.826 220.400 C 266.312 220.400,267.200 219.647,267.200 218.386 C 267.200 217.338,267.338 217.200,268.386 217.200 C 269.647 217.200,270.400 216.312,270.400 214.826 C 270.400 214.149,270.652 214.000,271.795 214.000 C 273.114 214.000,273.205 213.912,273.446 212.400 C 273.686 210.900,273.787 210.800,275.051 210.800 L 276.400 210.800 276.400 207.824 L 276.400 204.848 277.900 204.724 C 279.319 204.607,279.407 204.519,279.524 203.100 C 279.630 201.826,279.790 201.600,280.591 201.600 C 282.303 201.600,282.800 201.186,282.800 199.757 C 282.800 198.481,282.881 198.400,284.157 198.400 C 285.591 198.400,286.000 197.904,286.000 196.167 C 286.000 195.328,286.186 195.200,287.400 195.200 C 288.356 195.200,288.816 195.010,288.850 194.600 C 288.877 194.270,288.945 193.820,289.000 193.600 C 289.055 193.380,289.123 192.930,289.150 192.600 C 289.184 192.190,289.644 192.000,290.600 192.000 L 292.000 192.000 292.000 189.024 L 292.000 186.048 293.500 185.924 C 294.914 185.807,295.007 185.715,295.123 184.323 C 295.238 182.935,295.335 182.838,296.723 182.723 C 298.115 182.607,298.207 182.514,298.324 181.100 C 298.441 179.692,298.530 179.600,299.781 179.600 C 301.184 179.600,301.600 179.095,301.600 177.391 C 301.600 176.590,301.826 176.430,303.100 176.324 C 304.479 176.210,304.616 176.087,304.800 174.796 C 304.938 173.828,305.217 173.378,305.700 173.346 C 306.085 173.321,306.670 173.278,307.000 173.250 C 307.476 173.210,307.600 172.578,307.600 170.200 L 307.600 167.200 309.200 167.200 C 310.796 167.200,310.800 167.196,310.800 165.624 C 310.800 164.092,310.842 164.045,312.300 163.924 C 313.719 163.807,313.807 163.719,313.924 162.300 C 314.045 160.842,314.092 160.800,315.624 160.800 C 317.192 160.800,317.200 160.792,317.200 159.224 C 317.200 157.692,317.242 157.645,318.700 157.524 C 320.069 157.411,320.211 157.287,320.325 156.100 C 320.435 154.961,320.594 154.800,321.611 154.800 C 322.831 154.800,323.705 153.770,323.576 152.484 C 323.254 149.265,323.555 148.400,325.000 148.400 C 326.367 148.400,326.400 148.362,326.400 146.800 L 326.400 145.200 328.000 145.200 L 329.600 145.200 329.600 143.600 L 329.600 142.000 331.200 142.000 C 332.750 142.000,332.800 141.958,332.800 140.651 C 332.800 139.387,332.900 139.286,334.400 139.046 C 335.912 138.805,336.000 138.714,336.000 137.395 C 336.000 136.077,336.074 136.000,337.353 136.000 C 338.941 136.000,339.186 135.454,339.195 131.900 L 339.200 129.600 340.600 129.600 C 341.963 129.600,342.000 129.558,342.000 128.024 C 342.000 126.492,342.042 126.445,343.500 126.324 C 344.856 126.212,345.012 126.080,345.122 124.948 C 345.231 123.828,345.411 123.669,346.822 123.443 C 348.296 123.207,348.400 123.102,348.400 121.846 C 348.400 120.588,348.502 120.486,349.999 120.247 C 350.878 120.106,351.576 119.858,351.551 119.696 C 351.279 117.945,351.648 117.200,352.786 117.200 C 354.335 117.200,354.800 116.282,354.800 113.226 L 354.800 110.800 356.200 110.800 C 357.567 110.800,357.600 110.762,357.600 109.200 L 357.600 107.600 359.200 107.600 C 360.757 107.600,360.800 107.563,360.800 106.224 C 360.800 104.923,360.881 104.842,362.300 104.724 C 363.714 104.607,363.807 104.515,363.923 103.123 C 364.038 101.735,364.135 101.638,365.523 101.523 L 367.000 101.400 367.116 98.323 L 367.233 95.246 368.716 95.123 C 370.116 95.007,370.207 94.915,370.324 93.500 C 370.442 92.081,370.523 92.000,371.824 92.000 C 372.758 92.000,373.216 91.807,373.250 91.400 C 373.278 91.070,373.322 90.395,373.350 89.900 C 373.385 89.265,373.665 88.985,374.300 88.950 C 374.795 88.923,375.470 88.877,375.800 88.850 C 376.210 88.816,376.400 88.356,376.400 87.400 C 376.400 86.186,376.528 86.000,377.367 86.000 C 379.096 86.000,379.600 85.589,379.600 84.181 C 379.600 82.930,379.692 82.841,381.100 82.724 L 382.600 82.600 382.716 79.523 L 382.833 76.446 384.316 76.323 C 385.710 76.207,385.807 76.111,385.922 74.731 C 386.028 73.463,386.166 73.283,386.922 73.418 C 388.174 73.643,388.810 73.115,388.912 71.769 C 388.988 70.761,389.192 70.573,390.400 70.400 C 391.682 70.217,391.810 70.076,391.923 68.723 C 392.038 67.335,392.135 67.238,393.523 67.123 C 394.911 67.007,395.007 66.911,395.123 65.523 C 395.238 64.135,395.335 64.038,396.723 63.923 L 398.200 63.800 398.317 60.700 C 398.421 57.929,398.517 57.600,399.217 57.600 C 399.978 57.600,400.000 57.245,400.000 45.200 C 400.000 33.067,399.983 32.800,399.200 32.800 C 398.471 32.800,398.400 32.533,398.400 29.805 L 398.400 26.809 396.822 26.557 C 395.411 26.331,395.231 26.172,395.122 25.052 L 395.000 23.800 392.100 23.682 C 389.910 23.594,389.188 23.422,389.150 22.982 C 389.123 22.662,389.055 22.220,389.000 22.000 C 388.945 21.780,388.878 21.330,388.850 21.000 C 388.772 20.067,364.601 20.099,364.243 21.033 M33.067 64.266 C 32.920 64.413,32.800 65.133,32.800 65.867 L 32.800 67.200 29.805 67.200 L 26.809 67.200 26.557 68.778 C 26.331 70.189,26.172 70.369,25.052 70.478 L 23.800 70.600 23.682 73.500 C 23.594 75.690,23.422 76.412,22.982 76.450 C 22.662 76.478,22.220 76.545,22.000 76.600 C 21.780 76.655,21.330 76.723,21.000 76.750 C 20.476 76.794,20.400 79.156,20.400 95.405 L 20.400 114.010 34.300 113.905 L 48.200 113.800 48.313 109.349 L 48.425 104.898 50.013 104.644 L 51.600 104.391 51.600 101.419 L 51.600 98.448 53.100 98.324 C 54.089 98.242,54.613 97.995,54.639 97.600 C 54.804 95.063,54.581 95.244,57.700 95.118 L 60.600 95.000 60.724 93.501 L 60.848 92.002 165.524 91.901 L 270.200 91.800 270.400 90.400 C 270.573 89.192,270.761 88.988,271.769 88.912 C 273.115 88.810,273.643 88.174,273.418 86.922 C 273.283 86.166,273.463 86.028,274.731 85.922 C 276.110 85.808,276.208 85.709,276.323 84.323 C 276.438 82.935,276.535 82.838,277.923 82.723 C 279.311 82.607,279.407 82.511,279.523 81.123 C 279.638 79.735,279.735 79.638,281.123 79.523 C 282.511 79.407,282.607 79.311,282.723 77.923 C 282.838 76.535,282.935 76.438,284.323 76.323 C 285.709 76.208,285.808 76.110,285.922 74.731 C 286.028 73.463,286.166 73.283,286.922 73.418 C 288.174 73.643,288.810 73.115,288.912 71.769 C 288.988 70.761,289.192 70.573,290.400 70.400 L 291.800 70.200 291.800 67.200 L 291.800 64.200 162.567 64.099 C 91.489 64.044,33.214 64.119,33.067 64.266 M329.954 151.900 C 329.928 152.065,329.866 152.380,329.815 152.600 C 329.764 152.820,329.694 153.405,329.661 153.900 C 329.610 154.650,329.367 154.800,328.200 154.800 C 327.244 154.800,326.784 154.990,326.750 155.400 C 326.723 155.730,326.655 156.180,326.600 156.400 C 326.545 156.620,326.478 157.070,326.450 157.400 C 326.416 157.810,325.956 158.000,325.000 158.000 C 323.667 158.000,323.600 158.067,323.600 159.400 C 323.600 160.356,323.410 160.816,323.000 160.850 C 322.670 160.878,322.220 160.945,322.000 161.000 C 321.780 161.055,321.330 161.123,321.000 161.150 C 320.590 161.184,320.400 161.644,320.400 162.600 C 320.400 163.814,320.272 164.000,319.433 164.000 C 317.385 164.000,317.200 164.286,317.200 167.443 L 317.200 170.400 315.843 170.400 C 314.409 170.400,314.000 170.896,314.000 172.633 C 314.000 173.472,313.814 173.600,312.600 173.600 C 311.644 173.600,311.184 173.790,311.150 174.200 C 311.123 174.530,311.078 175.205,311.050 175.700 C 311.015 176.335,310.735 176.615,310.100 176.650 C 309.605 176.678,308.930 176.722,308.600 176.750 C 308.069 176.794,308.000 186.108,308.000 257.976 L 308.000 339.152 306.500 339.276 L 305.000 339.400 304.882 342.300 C 304.756 345.419,304.937 345.196,302.400 345.361 C 302.005 345.387,301.758 345.911,301.676 346.900 L 301.552 348.400 298.581 348.400 L 295.609 348.400 295.354 350.000 L 295.098 351.600 177.973 351.600 L 60.848 351.600 60.724 350.100 L 60.600 348.600 57.700 348.482 C 54.830 348.366,54.800 348.354,54.800 347.262 C 54.800 345.863,54.137 345.200,52.738 345.200 C 51.646 345.200,51.634 345.170,51.518 342.300 L 51.400 339.400 49.900 339.276 L 48.400 339.152 48.400 301.819 C 48.400 260.960,48.579 264.000,46.167 264.000 C 45.328 264.000,45.200 263.814,45.200 262.600 C 45.200 261.644,45.010 261.184,44.600 261.150 C 44.270 261.123,43.820 261.055,43.600 261.000 C 43.380 260.945,42.930 260.877,42.600 260.850 C 42.190 260.816,42.000 260.356,42.000 259.400 C 42.000 258.067,41.933 258.000,40.600 258.000 C 39.644 258.000,39.184 257.810,39.150 257.400 C 39.123 257.070,39.055 256.620,39.000 256.400 C 38.945 256.180,38.877 255.730,38.850 255.400 C 38.816 254.990,38.356 254.800,37.400 254.800 C 36.186 254.800,36.000 254.672,36.000 253.833 C 36.000 252.096,35.591 251.600,34.157 251.600 C 32.881 251.600,32.800 251.519,32.800 250.243 C 32.800 248.814,32.303 248.400,30.591 248.400 C 29.790 248.400,29.630 248.174,29.524 246.900 C 29.407 245.481,29.319 245.393,27.900 245.276 C 26.481 245.158,26.400 245.077,26.400 243.776 L 26.400 242.400 23.399 242.400 L 20.397 242.400 20.499 304.700 L 20.600 367.000 22.100 367.124 L 23.600 367.248 23.600 370.224 C 23.600 372.580,23.725 373.210,24.200 373.250 C 24.530 373.278,25.205 373.322,25.700 373.350 C 26.335 373.385,26.615 373.665,26.650 374.300 C 26.677 374.795,26.723 375.470,26.750 375.800 C 26.790 376.275,27.420 376.400,29.776 376.400 L 32.752 376.400 32.876 377.900 L 33.000 379.400 178.100 379.501 C 306.896 379.590,323.206 379.534,323.250 379.001 C 323.278 378.670,323.345 378.220,323.400 378.000 C 323.455 377.780,323.523 377.338,323.550 377.018 C 323.588 376.578,324.310 376.406,326.500 376.318 L 329.400 376.200 329.522 374.948 C 329.631 373.828,329.811 373.669,331.222 373.443 L 332.800 373.191 332.800 370.219 L 332.800 367.248 334.300 367.124 L 335.800 367.000 335.909 260.200 C 335.969 201.460,335.921 152.995,335.802 152.500 C 335.585 151.600,330.087 151.036,329.954 151.900 " stroke="none" fill="#fcd800" fill-rule="evenodd"></path><path id="path4" d="" stroke="none" fill="#ffff00" fill-rule="evenodd"></path></g></svg>