<?xml version="1.0" standalone="no"?>
<!DOCTYPE svg PUBLIC "-//W3C//DTD SVG 20010904//EN"
 "http://www.w3.org/TR/2001/REC-SVG-20010904/DTD/svg10.dtd">
<svg version="1.0" xmlns="http://www.w3.org/2000/svg"
 width="1086.000000pt" height="682.000000pt" viewBox="0 0 1086.000000 682.000000"
 preserveAspectRatio="xMidYMid meet">
<metadata>
Created by potrace 1.15, written by Peter Selinger 2001-2017
</metadata>
<g transform="translate(0.000000,682.000000) scale(0.100000,-0.100000)"
fill="#d2b29a" stroke="none">
<path d="M5025 6590 l7 -200 -23 0 c-12 0 -364 48 -782 106 -417 58 -760 104
-762 102 -9 -9 -904 -1705 -907 -1718 -2 -9 20 -26 58 -47 l61 -33 459 830
c252 457 461 829 464 828 4 -2 203 -216 444 -475 241 -260 438 -473 439 -474
11 -3 2643 -276 2645 -274 2 2 -212 225 -476 497 l-480 494 -349 47 c-191 26
-351 48 -354 47 -4 0 -10 96 -14 213 -4 116 -9 214 -11 216 -3 4 -360 40 -403
41 l-24 0 8 -200z"/>
<path d="M3848 5813 l-118 -4 0 -105 c0 -93 2 -105 16 -100 9 3 67 6 130 6
l114 0 0 105 c0 78 -3 104 -12 103 -7 -1 -66 -4 -130 -5z"/>
<path d="M3420 5694 l0 -107 46 7 c26 3 84 6 130 6 l84 0 0 100 0 100 -130 0
-130 0 0 -106z"/>
<path d="M3730 5444 l0 -107 46 7 c26 3 84 6 130 6 l84 0 0 100 0 100 -130 0
-130 0 0 -106z"/>
<path d="M3438 5533 c-16 -4 -18 -18 -18 -105 l0 -101 77 7 c42 3 100 6 130 6
l53 0 0 100 0 100 -112 -1 c-62 -1 -121 -3 -130 -6z"/>
<path d="M4191 4320 c-315 -508 -569 -925 -564 -929 75 -49 114 -73 117 -70 1
2 259 406 572 896 313 491 572 893 576 893 4 0 385 -376 846 -835 l839 -835
54 0 c132 0 640 -52 1038 -106 610 -82 1270 -208 1541 -293 35 -11 65 -19 66
-18 1 1 -370 385 -824 852 -453 468 -895 923 -981 1012 l-156 163 -1210 89
c-665 50 -1240 93 -1276 97 l-65 6 -573 -922z"/>
<path d="M1014 3409 c-390 -688 -710 -1254 -712 -1258 -1 -3 26 -22 59 -40 56
-31 63 -33 74 -17 7 9 322 567 701 1241 379 673 692 1225 695 1225 3 0 304
-295 669 -655 365 -360 667 -655 670 -655 6 1 747 1120 755 1141 4 11 -207 39
-1082 142 -599 70 -1095 128 -1104 127 -11 0 -247 -407 -725 -1251z"/>
<path d="M5123 4173 l-63 -4 0 -99 0 -100 78 0 c42 0 101 3 130 6 l52 7 0 98
0 99 -67 -2 c-38 -1 -96 -3 -130 -5z"/>
<path d="M4828 4163 l-88 -4 0 -99 0 -100 108 0 c161 0 152 -6 152 111 l0 99
-42 -2 c-24 -1 -82 -4 -130 -5z"/>
<path d="M5143 3913 l-83 -4 0 -99 0 -100 108 0 c161 0 152 -6 152 111 l0 99
-47 -2 c-27 -1 -85 -4 -130 -5z"/>
<path d="M1993 3903 l-53 -4 0 -100 0 -99 63 0 c34 0 92 3 130 7 l67 6 0 98 0
99 -77 -2 c-43 -1 -102 -3 -130 -5z"/>
<path d="M4848 3903 l-108 -4 0 -99 0 -100 130 0 130 0 0 105 c0 103 0 105
-22 103 -13 -1 -71 -4 -130 -5z"/>
<path d="M1703 3893 l-73 -4 0 -99 0 -100 88 0 c48 0 104 3 125 6 l37 7 0 98
0 99 -52 -2 c-29 -1 -86 -4 -125 -5z"/>
<path d="M2013 3643 l-73 -4 0 -99 0 -100 93 0 c50 0 109 3 130 6 l37 7 0 98
0 99 -57 -2 c-32 -1 -91 -4 -130 -5z"/>
<path d="M1723 3633 l-93 -4 0 -99 0 -100 125 0 125 0 0 105 0 105 -32 -2
c-18 -1 -75 -4 -125 -5z"/>
<path d="M5082 3249 c-1399 -64 -2763 -380 -3767 -874 -789 -388 -1235 -831
-1235 -1225 0 -542 788 -923 2240 -1084 428 -48 607 -58 1035 -61 226 -2 397
-1 380 1 -16 3 -97 14 -180 25 -1487 198 -2319 537 -2396 975 -14 82 0 158 51
259 206 414 1060 850 2270 1159 779 198 1625 325 2585 388 272 18 1372 18
1630 0 1069 -73 1914 -231 2735 -511 113 -38 256 -90 317 -114 62 -25 111 -41
108 -36 -15 23 -376 210 -580 299 -1021 445 -2503 731 -4145 800 -267 11 -791
11 -1048 -1z"/>
</g>
</svg>
